<?xml version="1.0" encoding="iso-8859-1"?>
<!-- Generator: Adobe Illustrator 15.1.0, SVG Export Plug-In . SVG Version: 6.00 Build 0)  -->
<!DOCTYPE svg PUBLIC "-//W3C//DTD SVG 1.1//EN" "http://www.w3.org/Graphics/SVG/1.1/DTD/svg11.dtd">
<svg version="1.1" id="Layer_1" xmlns="http://www.w3.org/2000/svg" xmlns:xlink="http://www.w3.org/1999/xlink" x="0px" y="0px"
	 width="491.8px" height="117px" viewBox="0 0 491.8 117" style="enable-background:new 0 0 491.8 117;" xml:space="preserve">
<g>
	<path style="fill:none;stroke:#FFFFFF;stroke-width:0.276;stroke-miterlimit:10;" d="M461.1,113.8l0.1-0.5
		c-13.1-4-103.7-30.4-226.5-34c0,0-123.5,2.1-212.6,34.5c0,0-2.7-43.9-17.5-64.1c0,0,66.8-42.5,226.8-43.2c0,0,185.6-0.1,256.5,39.8
		c0,0-19.3,30-24.9,66.9"/>
	<path style="fill:#181716;" d="M461.1,113.8l0.1-0.5c-13.1-4-103.7-30.4-226.5-34c0,0-123.5,2.1-212.6,34.5c0,0-2.7-43.9-17.5-64.1
		c0,0,66.8-42.5,226.8-43.2c0,0,185.6-0.1,256.5,39.8c0,0-19.3,30-24.9,66.9"/>
	<path style="fill:none;stroke:#FFFFFF;stroke-width:0.276;stroke-miterlimit:10;" d="M461.1,113.8l0.1-0.5
		c-13.1-4-103.7-30.4-226.5-34c0,0-123.5,2.1-212.6,34.5c0,0-2.7-43.9-17.5-64.1c0,0,66.8-42.5,226.8-43.2c0,0,185.6-0.1,256.5,39.8
		c0,0-19.3,30-24.9,66.9"/>
	<path style="fill:none;stroke:#FFFFFF;stroke-width:1.103;stroke-miterlimit:10;" d="M237.7,70.2c-1.8,0-128.7,1.6-208,34.3
		l-0.7,0.3l0-0.8c0-0.4-1.8-36.9-14.7-49.5l-0.5-0.5l0.7-0.4c0.2-0.1,19.5-10.1,55.9-20c33.6-9.1,89-20,162.3-20.3
		c1.8,0,176,3.9,245.6,36.3l0.6,0.3l-0.4,0.5c-0.2,0.3-23.7,30.1-24.3,52.8l0,0.7l-0.7-0.1c-1.8-0.4-4.7-1.3-8.7-2.6
		C421.1,93.8,358.2,73.9,237.7,70.2z"/>
	<path style="fill:none;stroke:#FFFFFF;stroke-width:0.368;stroke-miterlimit:10;" d="M237.7,68.7c-1.3,0-127.6,1.5-207.4,33.9
		C30,96,27.5,66.7,16.2,54.3c4.6-2.2,23.2-10.8,54.6-19.3c33.5-9.1,88.7-20,161.9-20.2c1.7,0,173.9,3.8,243.9,35.7
		c-4,5.2-22.7,30.7-23.8,51.7c-1.8-0.5-4.3-1.3-7.5-2.3C421.5,92.4,358.4,72.4,237.7,68.7L237.7,68.7L237.7,68.7z"/>
</g>
<g>
</g>
<g>
</g>
<g>
	<path style="fill:#CDD500;" d="M97.8,70.2C97.8,70.2,97.8,70.1,97.8,70.2c0-0.1,0-0.1,0-0.2c-0.1,0-0.2,0-0.3,0c-0.1,0-0.2,0-0.3,0
		c0,0,0.1-0.1,0-0.1l-0.1-0.4c0,0,0.1,0,0.2,0c0-0.6,0.1-1.1,0.5-1.6c0.3-0.3,0.5-0.9,0.6-1.7c0.2-0.9,0.3-1.8,0.5-2.7
		c0.1-1,0.3-1.9,0.3-2.9c0.1-0.9,0.2-1.7,0.3-2.2c0.1,0,0.1,0.1,0.1,0.4c-0.1,0.3-0.1,0.4-0.1,0.3c-0.3-0.2-0.3-0.6-0.2-1.1
		c0.1,0,0.2,0,0.3,0c0-0.2,0.1-0.7,0.2-1.5c0.1-0.8,0.2-1.3,0.2-1.7c0,0,0.1,0,0.2,0c0,0,0-0.1,0-0.2c-0.4,0.1-0.8,0.3-1.2,0.6
		c-0.4,0.3-0.8,0.5-1.2,0.6c0,0,0,0.1,0,0.2L97,56.1l0,0.1c-0.8,0.1-1.4,0.4-2,0.9c-0.6,0.5-1.2,0.7-1.8,0.7c0,0,0-0.1,0-0.1
		c-0.5,0-0.7-0.3-0.4-0.7c0.3-0.5,0.5-0.7,0.8-0.9c0,0,0-0.1,0-0.1c0.3,0,0.6-0.1,0.8-0.2s0.5-0.2,0.7-0.1c0.1-0.3,0.1-0.4,0.1-0.3
		c0.3,0,0.6-0.1,0.8-0.2s0.5-0.2,0.8-0.2c0-0.1,0.5-0.4,1.3-0.9c0.9-0.5,1.3-0.6,1.2-0.4c0,0,0.2-0.1,0.5-0.4
		c0.3-0.2,0.5-0.4,0.6-0.4l0.4-1c0,0-0.1,0-0.1,0c0-0.3,0-0.5,0.2-0.8c0,0,0.1,0,0.1,0c0.1-0.7,0.3-1.6,0.5-2.8
		c0.2-1.2,0.4-2.2,0.5-3.1c0,0,0.1,0,0.1,0c0-0.1,0-0.2,0.1-0.2c0.1,0,0-0.1-0.1-0.3c-0.5,0.3-1,0.5-1.5,0.9c-0.5,0.3-1,0.5-1.6,0.7
		c0,0,0,0.1,0,0.3c-0.7,0.2-1.1,0.5-1.4,0.9c-0.3,0.4-0.7,0.6-1.2,0.6c0,0,0,0.1,0,0.1c0,0,0,0.1,0,0.1c-0.1,0-0.1,0-0.2,0.1
		c0,0-0.1,0-0.2,0.1l0-0.1c0,0-0.1,0-0.1,0c0,0-0.1,0-0.1,0l0,0.1c-0.6,0.2-1,0.4-1.2,0.6c-0.3,0.2-0.6,0.4-1.1,0.5c0,0,0-0.1,0-0.1
		c-0.2,0-0.3,0-0.3,0.1l0,0.1c-0.2,0-0.4-0.1-0.5-0.5c-0.1-0.4,0-0.7,0.4-0.8c0,0,0-0.1,0-0.1c0.1,0,0.2,0,0.2,0c0.1,0,0.1,0,0.2,0
		c0,0,0.2-0.2,0.8-0.5s1.1-0.7,1.8-1c0.7-0.4,1.3-0.7,2-1c0.6-0.3,1.1-0.5,1.3-0.5c0-0.1,0-0.2,0-0.2c0,0,0.1-0.1,0.2-0.1l0-0.1
		c0,0,0.1,0,0.2,0c0.1,0,0.1,0,0.2,0c0-0.1,0-0.2,0-0.3c0.1,0,0.3,0,0.4,0c0.1,0,0.3,0,0.4,0c0-0.1,0-0.1,0-0.2
		c0.2-0.1,0.9-0.4,2-0.9c1.1-0.5,2.2-1.1,3.5-1.6c1.2-0.6,2.3-1,3.3-1.4c1-0.4,1.5-0.6,1.5-0.5c0.6-0.1,1.2-0.4,1.7-0.7
		c0.6-0.3,1.2-0.5,1.9-0.6c0-0.1,0-0.2,0-0.2c0.6,0,1.1-0.2,1.5-0.5l0-0.1c0,0,0.1,0,0.3,0c0.1,0,0.3,0,0.4-0.1
		c-0.1,0.1-0.1,0.1-0.1,0.3c0,0,0.1,0,0.1,0s0.1,0,0.1,0c0-0.1,0-0.1,0-0.2c0,0,0-0.1,0-0.1c0.8-0.3,1.5-0.5,2-0.8
		c0.5-0.3,1.2-0.5,1.9-0.7c0,0,0-0.1,0-0.1c1.1-0.3,1.7-0.2,1.8,0.2c0.1,0.4,0.1,0.6-0.1,0.6c-0.1,0.1-0.2,0.2-0.1,0.3
		c-0.5,0.2-1.1,0.5-1.9,0.9c-0.8,0.4-1.3,0.7-1.5,0.9c0,0.1,0,0.2-0.1,0.3c-0.1,0-0.2,0-0.4,0c-0.1-0.8-0.6-0.8-1.3-0.2
		c-0.8,0.6-2.1,1.1-4,1.5l0,0.1c-0.1,0-0.3,0-0.4,0.1c-0.2,0-0.3,0.1-0.4,0.1l-0.1,0.1c-0.2,0-0.4,0.1-0.6,0.2s-0.3,0.1-0.4,0.2
		c0,0,0,0.1,0,0.1c0,0-0.1,0-0.2,0c-0.1,0-0.1,0-0.2,0c0,0.1-0.2,0.3-0.7,0.4c-0.5,0.1-0.8,0.2-0.9,0.1c0,0.2-0.3,0.3-0.7,0.4l0,0.1
		c-0.4,0.1-0.7,0.2-1,0.4c-0.3,0.1-0.7,0.2-1,0.3c0,0.1,0,0.2-0.1,0.2c0,0,0-0.1,0-0.1c0,0,0-0.1,0-0.1c0,0-0.1,0-0.1,0
		c-0.1,0.2-0.2,0.3-0.4,0.4s-0.4,0.1-0.5,0.2c0,0.1,0,0.1,0,0.2c-0.3,0-0.7,0.2-1.1,0.3c-0.4,0.2-0.7,0.4-0.7,0.7c0,0,0,0.1,0,0.3
		c0,0.2,0,0.3,0.1,0.3c-0.3,1.4-0.5,2.5-0.8,3.3c-0.2,0.8-0.4,1.9-0.6,3.3c0.1,0.1,0.2,0.1,0.2,0.1c0-0.1,0.6-0.4,1.6-0.8
		c1-0.4,1.7-0.7,1.9-0.9l0-0.1c0.3-0.1,0.6-0.1,0.7-0.3c0.1-0.1,0.4-0.2,0.7-0.2c0-0.1,0-0.2,0-0.3c0.1,0,0.2,0.1,0.2,0.2
		c0,0,0.1,0,0.1-0.1c0-0.1,0-0.2,0-0.3c0.5-0.2,0.9-0.4,1.3-0.5c0.4-0.2,0.8-0.3,1.3-0.4c0-0.2,0.1-0.3,0.3-0.3
		c0.1-0.1,0.1-0.1,0.1-0.2c1-0.3,2-0.7,3.1-1.1c1.1-0.4,2-0.7,2.9-0.8c0,0,0-0.1,0-0.1c0,0,0-0.1,0-0.1c0,0,0.1,0,0.2,0.2
		c0.4,0,0.7,0.2,0.8,0.6c0.1,0.4-0.1,0.7-0.6,0.9l-0.1-0.1c-0.2,0.2-0.5,0.3-0.8,0.3c-0.3,0-0.6,0-0.8,0.1l0,0.1
		c-0.2,0.1-0.5,0.2-0.8,0.2c-0.4,0-0.6,0.1-0.6,0.3c-0.1,0-0.1-0.1-0.1-0.1c0,0-0.1,0-0.1,0l0,0.1c-2.7,0.8-4.1,1.4-4.2,1.7
		c-0.4,0.1-1,0.4-1.9,0.8c-0.9,0.4-1.3,0.7-1.3,0.8c-0.8,0.1-1.5,0.4-2.2,0.8c-0.7,0.4-1.4,0.8-2,1.1c0,0,0,0.1,0,0.2
		c0,0-0.1,0-0.2,0c-0.1,0.3-0.2,0.5-0.2,0.7c-0.1,0.2-0.1,0.4-0.1,0.6c-0.1,0-0.2,0-0.3,0c0,0.2,0,0.9-0.2,2
		c-0.2,1.1-0.3,1.7-0.5,1.7c0.1,1-0.1,2.5-0.4,4.5c-0.4,2-0.4,3.3-0.1,4c-0.1,0-0.2,0-0.3,0c0,0.3-0.1,0.5-0.1,0.7
		c-0.1,0.2-0.1,0.4,0,0.5c0,0-0.1,0-0.2,0c0,0.6-0.1,1-0.3,1.3C98.9,69.9,98.5,70.1,97.8,70.2z M103.5,43.6c0,0,0.1,0,0.2-0.1
		c0.1-0.1,0.2-0.1,0.2-0.1c0,0,0-0.1,0-0.1c-0.1,0.1-0.2,0.1-0.3,0.1c-0.1,0-0.2,0.1-0.2,0.1C103.4,43.6,103.5,43.6,103.5,43.6z
		 M104.9,42.7c0,0-0.1,0.1-0.1,0.1c0,0,0,0.1,0,0.3C104.8,43,104.8,42.9,104.9,42.7z M105.9,42.6l-0.1-0.1l-0.3,0.2l0.1,0.1
		C105.7,42.7,105.8,42.6,105.9,42.6z M106.1,50.8c0.3-0.1,0.7-0.3,1.1-0.5c0.4-0.2,0.7-0.3,1.1-0.4l0-0.1c0.1,0,0.3,0,0.4,0
		c-0.1-0.1-0.2-0.1-0.2-0.2c0,0.1,0,0.1,0,0.1c-0.2-0.1-0.6,0-1.3,0.3C106.4,50.3,106.1,50.6,106.1,50.8z M106.3,42.2
		c0,0,0.1,0,0.1-0.1c0,0-0.2,0-0.3,0.1l0.1,0.1C106.3,42.2,106.3,42.2,106.3,42.2z M107.6,41.8c0.1-0.1,0.4-0.2,0.7-0.3l0.1,0.1
		c0-0.1,0-0.1,0-0.2c-0.2,0-0.4,0.1-0.7,0.2c-0.3,0.1-0.5,0.2-0.7,0.2c0,0,0,0.1,0,0.2C107.3,41.9,107.5,41.9,107.6,41.8z
		 M108.6,41.5c0,0,0.1-0.1,0.2-0.2c0.1-0.1,0.2-0.2,0.3-0.2c0,0-0.3,0-0.6,0.1c0,0.1,0,0.2,0,0.3C108.5,41.4,108.5,41.4,108.6,41.5z
		 M109.1,49.4c0.1,0,0.2-0.1,0.4-0.2C109.3,49.3,109.2,49.3,109.1,49.4c-0.1-0.1-0.3-0.1-0.4,0c0,0,0,0.1,0,0.1
		C108.8,49.5,109,49.5,109.1,49.4z M110.7,40.5c-0.1,0-0.2,0-0.2,0c-0.1,0-0.1,0-0.2,0c0,0.1,0,0.1,0,0.2c-0.1,0-0.1,0-0.2,0l0-0.1
		c0,0-0.1,0,0,0.2c0,0-0.1,0-0.2,0l0,0.1C110.2,40.8,110.5,40.7,110.7,40.5z M110.7,39.9c0.1,0,0.2,0,0.2,0
		C110.7,39.8,110.6,39.8,110.7,39.9z M110.9,40.5c0,0,0.1,0,0.1,0l0.1-0.4l-0.3,0.3c0,0,0,0.1,0,0.2
		C110.8,40.5,110.8,40.5,110.9,40.5z M111.9,40.1c0.1-0.1,0.1-0.2,0.1-0.3l-0.2,0c0,0,0,0.1,0,0.1C111.9,40,111.9,40.1,111.9,40.1z
		 M112.3,39.9l0.3-0.2c-0.2,0-0.3-0.1-0.4-0.2C112.2,39.7,112.3,39.8,112.3,39.9z"/>
</g>
<g>
	<path style="fill:#CDD500;" d="M116.4,67.4c-0.4,0-0.6-0.3-0.7-0.7c0-0.5,0.1-0.8,0.2-0.9l0.3-0.9l0.3,0c0-0.2,0.1-0.3,0.3-0.5
		c0.2-0.2,0.3-0.4,0.3-0.6c-0.2,0.2-0.4,0.3-0.4,0.3l0.2-0.7l0.1,0c0.1-0.1,0.1-0.3,0.1-0.4l0.1-0.1c0,0,0.1,0,0.1,0
		c0-0.1,0-0.2,0-0.3l0,0.1l0.3-0.9l0.2,0c0-0.1,0-0.2,0-0.4c0.2-0.3,0.4-0.8,0.6-1.4l0.1,0c0.1-0.2,0.2-0.4,0.3-0.5
		c0.1-0.1,0.2-0.4,0.2-0.6c-0.1,0.1-0.2,0.3-0.3,0.3c0.1-0.2,0.2-0.5,0.2-0.7c0.2-0.1,0.2-0.2,0.2-0.4l0-0.1c0,0,0.1,0,0.1,0
		c0.1-0.1,0.1-0.2,0.1-0.3l-0.2,0.1c0.5-1.6,0.8-3.1,0.8-4.3l-0.4,0.4c-0.7,0.7-1.6,1.1-2.7,1.2c-0.4-0.1-0.7-0.2-0.7-0.4
		c-0.1-1,0.3-1.5,1.2-1.4c1.1-0.2,1.9-0.6,2.5-1.3c0.4-0.7,0.6-1.4,0.7-2.1c0.1-0.3,0.4-0.5,0.8-0.4c0.4,0,0.6,0.2,0.7,0.5
		c-0.2,1.5-0.6,3.1-1.2,4.8c-0.7,1.8-1.1,3.8-1.2,6l0.1,0c0.1,0,0.1,0,0.1-0.1c0,0,0-0.1,0-0.2c1-2.3,1.7-3.7,2.1-4.3
		c0.4-0.6,0.9-1.4,1.7-2.6c0.1,0,0.3,0,0.4,0c0-0.1,0-0.1,0-0.1c0,0-0.1,0-0.1,0c0-0.1,0-0.2,0-0.3c0-0.1,0.2-0.4,0.5-0.8
		c0.3-0.5,0.7-1,1-1.5c0.3-0.5,0.8-1.2,1.4-2.1c0.1-0.1,0.2-0.2,0.3-0.3c0.2-0.1,0.3-0.2,0.4-0.3c0.3,0,0.6,0.1,1,0.4
		c0.2,0.1,0.4,0.3,0.4,0.5c0,0.1,0,0.2,0,0.3c-0.1,0.4-0.2,0.7-0.4,1.1c-0.1,0.4-0.2,0.7-0.3,1.1c-0.1,0.4-0.1,0.7-0.2,0.9
		c0.2,0.2,0.2,0.6,0,1c-0.3,0.5-0.5,0.6-0.8,0.5c-0.6-0.2-0.7-0.6-0.3-1.3c0.1-0.8,0.2-1.2,0.2-1.3c-0.2,0-0.3,0.1-0.3,0.1
		c-0.5,0.3-1,0.9-1.6,1.7c-0.6,0.8-1,1.4-1.2,1.8c-0.5,0.7-1,1.6-1.6,2.7c-0.6,1.1-1.2,2.2-1.8,3.4c-0.3,0.6-0.5,1.1-0.8,1.6
		c-0.3,0.5-0.5,1-0.8,1.4c-0.3,0.6-0.6,1.2-0.8,1.8c-0.2,0.6-0.4,1.1-0.5,1.5C117,67.3,116.7,67.4,116.4,67.4z M119.5,56.3
		c-0.1,0-0.1,0-0.2,0.1c-0.1,0.1-0.2,0.3-0.1,0.4c0.1-0.1,0.2-0.1,0.2-0.1C119.5,56.6,119.5,56.4,119.5,56.3z M119.3,61
		c0.1,0,0.1,0,0.2,0l0-0.2c0,0-0.1,0-0.1,0C119.3,60.8,119.2,60.8,119.3,61z M119.9,54.7l-0.2,0c0,0.2,0.1,0.2,0.4,0.2
		C120,54.9,119.9,54.8,119.9,54.7z M123.7,53.8c0.1,0,0.1,0,0.2,0l0-0.1c-0.1,0-0.2,0-0.4,0.1C123.5,53.7,123.6,53.7,123.7,53.8z"/>
</g>
<g>
	<path style="fill:#CDD500;" d="M138.9,61.3l0.1,0c0.1-0.2,0.3-0.3,0.5-0.4c0.4-0.4,0.8-0.9,1.3-1.5c0.5-0.6,0.8-1.2,1.2-1.7
		c0.1-0.1,0.2-0.3,0.4-0.5c0.1-0.2,0.3-0.3,0.6-0.2c-0.1,0-0.2,0-0.2,0.1l0,0.1l0,0.1c-0.1,0-0.1,0.1-0.2,0.2c0,0,0,0.2,0,0.3
		c-0.1,0.1-0.2,0.1-0.2,0.1s-0.1,0-0.1,0c0,0,0.1,0.1,0.1,0.2c-0.1,0.1-0.2,0.2-0.3,0.3c-0.1,0.1-0.2,0.2-0.2,0.3
		c0,0.1,0,0.2,0.1,0.2c0-0.3,0.1-0.5,0.4-0.7c-0.2,0.2-0.3,0.4-0.2,0.7c0,0-0.1,0.1-0.3,0.2c-0.1,0.1-0.3,0.2-0.4,0.2
		c0,0.1,0,0.2,0.1,0.2c0,0,0.1-0.1,0.1-0.2c0-0.1,0.1-0.2,0.3-0.2c-0.1,0.1-0.2,0.2-0.3,0.4c-0.1,0.2-0.1,0.3-0.2,0.3
		c-0.1,0.1-0.2,0.2-0.3,0.3c-0.1,0.1-0.1,0.2-0.3,0.2c0,0.2-0.1,0.4-0.4,0.7c-0.3,0.3-0.5,0.5-0.6,0.6l-0.3,0.4l-0.1,0
		c0,0.1-0.1,0.2-0.2,0.4c-0.3,0.3-0.5,0.5-0.6,0.5c-0.1,0.1-0.3,0.3-0.5,0.5c-0.6,0.4-1.2,0.7-1.7,0.9c-0.2,0.1-0.5,0.2-0.9,0.2
		c-0.6,0.1-1.2,0-1.8-0.1c0-0.2-0.1-0.3-0.1-0.4c-0.1,0-0.2,0-0.2,0.1c0,0,0,0.1-0.2,0.1c-1-0.3-1.8-1-2.2-2.2
		c-0.2-0.7-0.3-1.6-0.3-2.5c0-0.9,0.2-1.9,0.7-2.9c0.3,0,0.4-0.1,0.3-0.2c0,0-0.1,0-0.1,0c0-0.1,0-0.3,0-0.5c0,0-0.1,0-0.1,0
		c0.2,0,0.4-0.2,0.7-0.5c0-0.2-0.2-0.3-0.5-0.3c-0.1,0-0.1-0.1,0.1-0.3c0,0,0.1,0,0.2,0c0.6-2,1.6-4,3-5.8c1.4-1.9,2.5-2.7,3.2-2.7
		c-0.1-0.1,0.2-0.3,0.9-0.6c0.7-0.3,1.3-0.4,1.8-0.4c0.7,0.1,1.1,0.5,1.2,1.3c0,0.8,0.1,1.4,0.2,1.9c0,1.3-0.3,2.4-1.1,3.4
		c-0.8,1-1.7,1.9-2.7,2.5c-1.6,1-2.9,1.5-3.9,1.6c-1.1,0.1-1.5-0.6-1.2-1.9c-0.1,0.2-0.2,0.4-0.2,0.6c-0.1,0.2-0.1,0.4-0.2,0.6
		c-0.4,1.2-0.6,2.5-0.7,3.8c-0.1,1.4,0.2,2.4,0.8,3.1c0.6,0.8,1.3,1.2,2.1,1.1s1.6-0.4,2.4-0.9C138,62.2,138.5,61.8,138.9,61.3z
		 M131.8,55.4c0,0,0-0.1,0-0.1c0.1,0,0.1,0,0.2,0c0,0,0,0.1,0,0.2c0,0.1,0,0.1,0,0.2c0,0-0.1,0-0.1,0
		C131.8,55.5,131.8,55.4,131.8,55.4z M139.9,46.1c-0.5,0-0.9,0.1-1.2,0.4l-0.1,0c-0.3,0.2-0.7,0.5-1.1,0.9c-0.1,0.1-0.2,0.2-0.3,0.3
		c-0.1,0.1-0.2,0.2-0.2,0.2l0.1,0.1c0,0.1,0,0.2,0,0.3c-0.1,0.1-0.2,0.1-0.3,0.2s-0.1,0.1-0.2,0.1c0,0,0,0.1,0.1,0
		c-0.2,0.2-0.5,0.6-0.9,1.1c-0.4,0.5-0.5,0.9-0.5,1.1c0,0-0.1,0-0.1,0c0,0-0.1,0-0.1,0l0.1,0c-0.2,0.2-0.3,0.3-0.4,0.5
		c-0.1,0.2-0.2,0.4-0.3,0.5c0,0,0.1,0.1,0.2,0.2c0,0-0.1,0-0.3,0c0,0.1,0,0.2,0,0.3c-0.1,0-0.1,0.1-0.1,0.1c0,0,0,0.1,0,0.2
		c0,0.1,0,0.1,0,0.2c0,0-0.1,0.1-0.1,0.1c0,0.2,0,0.3,0,0.3c0,0-0.1,0.1-0.1,0.1l0.1,0.1c-0.1,0-0.1,0-0.2,0c-0.1,1.1,0,1.6,0.4,1.7
		c0.4,0.1,1-0.1,1.9-0.4c0.2-0.1,0.8-0.4,1.6-1c0.8-0.5,1.5-1.2,2.2-2c1-1.3,1.5-2.6,1.5-4.1C141.6,46.3,141.1,45.7,139.9,46.1z"/>
</g>
<g>
	<path style="fill:#CDD500;" d="M152.4,59.7l0.1,0c0.1-0.2,0.3-0.3,0.5-0.4c0.4-0.4,0.8-0.9,1.3-1.5c0.5-0.6,0.9-1.2,1.2-1.7
		c0.1-0.1,0.2-0.3,0.4-0.5c0.1-0.2,0.3-0.3,0.6-0.2c-0.1,0-0.2,0-0.2,0.1l0,0.1l0,0.1c-0.1,0-0.1,0.1-0.2,0.2c0,0,0,0.2,0,0.3
		c-0.1,0.1-0.2,0.1-0.2,0.1s-0.1,0-0.1,0c0,0,0.1,0.1,0.1,0.2c-0.1,0.1-0.2,0.2-0.3,0.3c-0.1,0.1-0.2,0.2-0.2,0.3
		c0,0.1,0,0.2,0.1,0.2c0-0.3,0.1-0.5,0.4-0.7c-0.2,0.2-0.3,0.4-0.2,0.7c0,0-0.1,0.1-0.3,0.2c-0.1,0.1-0.3,0.2-0.4,0.2
		c0,0.1,0,0.2,0.1,0.2c0,0,0.1-0.1,0.1-0.2c0.1-0.1,0.1-0.2,0.3-0.2c-0.1,0.1-0.2,0.2-0.3,0.4c-0.1,0.2-0.2,0.3-0.2,0.3
		c-0.1,0.1-0.2,0.2-0.3,0.3c-0.1,0.1-0.1,0.2-0.3,0.2c0,0.2-0.1,0.4-0.4,0.7c-0.3,0.3-0.5,0.5-0.6,0.6l-0.3,0.4l-0.1,0
		c0,0.1-0.1,0.2-0.2,0.4c-0.3,0.3-0.5,0.5-0.6,0.5c-0.1,0.1-0.3,0.3-0.5,0.5c-0.6,0.4-1.2,0.7-1.7,0.8c-0.2,0.1-0.5,0.2-0.9,0.2
		c-0.6,0.1-1.2,0-1.8-0.2c0-0.2-0.1-0.3-0.1-0.4c-0.1,0-0.2,0-0.2,0.1c0,0,0,0.1-0.2,0.1c-1-0.3-1.7-1.1-2.1-2.3
		c-0.2-0.8-0.3-1.6-0.3-2.5c0-0.9,0.3-1.9,0.7-2.9c0.3,0,0.4-0.1,0.3-0.2c0,0-0.1,0-0.1,0c0-0.1,0-0.3,0-0.5c0,0-0.1,0-0.1,0
		c0.2,0,0.4-0.2,0.7-0.5c0-0.2-0.2-0.3-0.5-0.3c-0.1,0-0.1-0.1,0.1-0.3c0,0,0.1,0,0.2,0c0.6-2,1.7-3.9,3.1-5.8
		c1.4-1.8,2.5-2.7,3.2-2.6c-0.1-0.1,0.2-0.3,0.9-0.6c0.7-0.3,1.3-0.4,1.8-0.4c0.7,0.1,1.1,0.5,1.2,1.3c0,0.8,0.1,1.4,0.1,1.9
		c0,1.3-0.4,2.4-1.1,3.4c-0.8,1-1.7,1.9-2.8,2.5c-1.6,1-2.9,1.5-4,1.5c-1.1,0-1.5-0.6-1.1-1.9c-0.1,0.2-0.2,0.4-0.2,0.6
		c-0.1,0.2-0.1,0.4-0.2,0.6c-0.4,1.2-0.6,2.5-0.7,3.8c-0.1,1.3,0.2,2.4,0.8,3.1c0.6,0.8,1.3,1.2,2.1,1.1c0.8-0.1,1.6-0.4,2.5-0.8
		C151.5,60.5,151.9,60.1,152.4,59.7z M145.3,53.6c0,0,0-0.1,0-0.1c0.1,0,0.1,0,0.2,0c0,0,0,0.1,0,0.2c0,0.1,0,0.1,0,0.2
		c0,0-0.1,0-0.1,0C145.3,53.7,145.3,53.7,145.3,53.6z M153.6,44.4c-0.5,0-0.9,0.1-1.3,0.3l-0.1,0c-0.3,0.2-0.7,0.4-1.1,0.8
		c-0.1,0.1-0.2,0.2-0.3,0.3c-0.1,0.1-0.2,0.2-0.2,0.2l0.1,0.1c0,0.1,0,0.2,0,0.3c-0.1,0.1-0.2,0.1-0.3,0.2c-0.1,0.1-0.1,0.1-0.2,0.1
		c0,0,0,0.1,0.1,0c-0.2,0.2-0.6,0.6-0.9,1.1c-0.4,0.5-0.6,0.9-0.5,1.1c0,0-0.1,0-0.1,0c0,0-0.1,0-0.1,0l0.1,0
		c-0.2,0.1-0.3,0.3-0.4,0.5c-0.1,0.2-0.2,0.4-0.3,0.5c0,0,0.1,0.1,0.2,0.2c0,0-0.1,0-0.3,0c0,0.1,0,0.2,0,0.3
		c-0.1,0-0.1,0.1-0.1,0.1c0,0,0,0.1,0,0.2c0,0.1,0,0.1,0,0.2c0,0-0.1,0.1-0.1,0.1c0,0.2,0,0.3,0,0.3c0,0-0.1,0.1-0.1,0.1l0.1,0.1
		c-0.1,0-0.1,0-0.2,0c-0.1,1.1,0,1.6,0.3,1.7s1-0.1,1.9-0.4c0.2-0.1,0.8-0.4,1.6-0.9c0.8-0.5,1.6-1.2,2.2-2c1-1.2,1.5-2.6,1.6-4
		C155.3,44.6,154.7,44.1,153.6,44.4z"/>
</g>
<g>
</g>
<g>
	<path style="fill:#CDD500;" d="M174.8,59.9C174.8,59.8,174.8,59.8,174.8,59.9c0-0.1,0-0.1,0-0.2c-0.1,0-0.2,0-0.3,0
		c-0.1,0-0.2,0-0.3-0.1c0,0,0.1,0,0.1-0.1l-0.1-0.4c0,0,0.1,0,0.2,0c0-0.6,0.2-1.1,0.6-1.5c0.3-0.3,0.5-0.8,0.8-1.7
		c0.2-0.8,0.5-1.7,0.7-2.7c0.2-1,0.4-1.9,0.6-2.8s0.3-1.6,0.4-2.2c0.1,0,0.1,0.1,0,0.4c-0.1,0.3-0.1,0.4-0.1,0.3
		c-0.2-0.2-0.3-0.6-0.1-1.1c0.1,0,0.2,0,0.3,0c0-0.2,0.1-0.7,0.3-1.5c0.2-0.8,0.3-1.3,0.3-1.6c0,0,0.1,0,0.2,0c0,0,0-0.1,0-0.2
		c-0.4,0-0.8,0.2-1.3,0.5c-0.4,0.3-0.8,0.4-1.2,0.5c0,0,0,0.1,0,0.2l-0.7,0.3l0,0.1c-0.8,0.1-1.5,0.3-2.1,0.8
		c-0.6,0.5-1.2,0.7-1.9,0.6c0,0,0-0.1,0-0.1c-0.5-0.1-0.6-0.3-0.4-0.8c0.3-0.4,0.6-0.7,0.9-0.8c0,0,0-0.1,0.1-0.1
		c0.3,0,0.6,0,0.8-0.1c0.3-0.1,0.5-0.1,0.7-0.1c0.1-0.3,0.1-0.4,0.1-0.3c0.3,0,0.6-0.1,0.9-0.2c0.3-0.1,0.6-0.1,0.9-0.2
		c0-0.1,0.5-0.4,1.4-0.8c0.9-0.4,1.3-0.5,1.2-0.3c0,0,0.2-0.1,0.5-0.3c0.3-0.2,0.5-0.3,0.6-0.3l0.4-1c0,0-0.1,0-0.1-0.1
		c0-0.3,0.1-0.5,0.3-0.7c0,0,0.1,0.1,0.1,0.1c0.2-0.7,0.4-1.6,0.7-2.7c0.3-1.1,0.5-2.2,0.7-3c0,0,0.1,0,0.1,0c0-0.1,0-0.2,0.1-0.2
		c0.1,0,0-0.1-0.1-0.3c-0.5,0.2-1.1,0.5-1.5,0.7c-0.5,0.3-1,0.5-1.6,0.6c0,0,0,0.1,0,0.3c-0.7,0.2-1.2,0.5-1.5,0.8
		c-0.3,0.4-0.8,0.5-1.3,0.5c0,0,0,0.1,0,0.1c0,0,0,0.1,0,0.1c-0.1,0-0.1,0-0.2,0c0,0-0.1,0-0.2,0l0-0.1c0,0-0.1,0-0.1,0
		c0,0-0.1,0-0.1,0l0,0.1c-0.6,0.2-1,0.4-1.3,0.5c-0.3,0.2-0.6,0.3-1.1,0.4c0,0,0-0.1,0-0.1c-0.2,0-0.3,0-0.3,0l0,0.1
		c-0.2,0-0.4-0.2-0.5-0.6c-0.1-0.4,0-0.7,0.4-0.8c0,0,0-0.1,0-0.1c0.1,0,0.2,0,0.2,0c0.1,0,0.1,0,0.2,0c0,0,0.3-0.2,0.8-0.5
		c0.5-0.3,1.1-0.6,1.8-0.9c0.7-0.3,1.4-0.6,2-0.9s1.1-0.4,1.4-0.4c0-0.1,0-0.2,0-0.2c0,0,0.1-0.1,0.3-0.1l0-0.1c0,0,0.1,0,0.2,0
		c0.1,0,0.1,0,0.2,0c0-0.1,0-0.2,0-0.3c0.1,0,0.3,0,0.4,0c0.1,0,0.3,0,0.4,0c0-0.1,0-0.1,0-0.2c0.3-0.1,0.9-0.3,2.1-0.8
		c1.1-0.4,2.3-0.9,3.6-1.3c1.3-0.5,2.4-0.8,3.4-1.2c1-0.3,1.5-0.5,1.5-0.4c0.6-0.1,1.2-0.3,1.8-0.6c0.6-0.3,1.2-0.4,1.9-0.5
		c0-0.1,0-0.2,0-0.2c0.6,0,1.1-0.1,1.5-0.4l0-0.1c0,0,0.1,0,0.3,0s0.3,0,0.4,0c-0.1,0.1-0.1,0.1-0.1,0.3c0,0,0.1,0,0.1,0
		s0.1,0,0.1,0c0-0.1,0-0.1,0-0.2c0,0,0-0.1,0-0.1c0.8-0.2,1.5-0.4,2.1-0.7c0.6-0.2,1.2-0.4,2-0.6c0,0,0-0.1,0-0.1
		c1.1-0.2,1.7-0.1,1.8,0.3c0.1,0.4,0,0.6-0.2,0.6c-0.1,0.1-0.2,0.2-0.2,0.3c-0.5,0.1-1.2,0.4-2,0.7c-0.8,0.4-1.3,0.6-1.5,0.7
		c0,0.1,0,0.2-0.1,0.3c-0.1,0-0.2,0-0.4,0c-0.1-0.8-0.5-0.9-1.3-0.3c-0.8,0.5-2.2,0.9-4.2,1.2l0,0.1c-0.1,0-0.3,0-0.4,0
		c-0.2,0-0.3,0-0.4,0l-0.1,0.1c-0.2,0-0.4,0.1-0.6,0.1c-0.2,0.1-0.3,0.1-0.4,0.1c0,0,0,0.1-0.1,0.1c0,0-0.1,0-0.2,0
		c-0.1,0-0.1,0-0.2,0c0,0.1-0.2,0.2-0.7,0.3c-0.5,0.1-0.8,0.1-0.9,0.1c0,0.2-0.3,0.3-0.7,0.3l0,0.1c-0.4,0.1-0.7,0.2-1.1,0.3
		c-0.3,0.1-0.7,0.2-1,0.2c0,0.1,0,0.2-0.1,0.2c0,0,0-0.1,0-0.1c0,0,0-0.1,0-0.1c0,0-0.1,0-0.1,0c-0.1,0.2-0.2,0.3-0.5,0.4
		c-0.2,0.1-0.4,0.1-0.5,0.1c0,0.1,0,0.1,0,0.2c-0.3,0-0.7,0.1-1.1,0.3c-0.4,0.1-0.7,0.4-0.7,0.7c0,0,0,0.1,0,0.3
		c-0.1,0.2-0.1,0.3,0,0.3c-0.4,1.4-0.7,2.5-1,3.2c-0.3,0.7-0.6,1.8-0.8,3.3c0.1,0.1,0.2,0.1,0.2,0.1c0-0.1,0.6-0.4,1.6-0.7
		c1.1-0.3,1.7-0.6,2-0.8l0-0.1c0.3,0,0.6-0.1,0.7-0.2c0.1-0.1,0.4-0.2,0.7-0.2c0-0.1,0-0.2,0-0.3c0.1,0,0.2,0.1,0.2,0.2
		c0,0,0.1,0,0.1-0.1c0-0.1,0-0.2,0-0.3c0.5-0.1,1-0.3,1.4-0.4c0.4-0.2,0.9-0.3,1.3-0.3c0-0.2,0.1-0.3,0.3-0.3c0.1,0,0.1-0.1,0.1-0.2
		c1-0.3,2.1-0.6,3.1-0.9c1.1-0.3,2.1-0.5,2.9-0.5c0,0,0-0.1,0-0.1c0,0,0-0.1,0-0.1c0,0,0.1,0.1,0.1,0.2c0.4,0,0.7,0.3,0.7,0.7
		c0,0.4-0.2,0.7-0.6,0.9l-0.1-0.1c-0.2,0.2-0.5,0.2-0.8,0.2c-0.3,0-0.6,0-0.8,0l0,0.1c-0.2,0.1-0.5,0.2-0.9,0.2
		c-0.4,0-0.6,0.1-0.6,0.3c-0.1,0-0.1-0.1-0.1-0.1c0,0-0.1,0-0.1,0l0,0.1c-2.8,0.6-4.2,1-4.3,1.3c-0.4,0.1-1,0.3-1.9,0.7
		c-0.9,0.3-1.4,0.6-1.4,0.7c-0.8,0.1-1.5,0.3-2.3,0.6c-0.8,0.3-1.5,0.7-2.1,1c0,0,0,0.1,0,0.2c0,0-0.1,0-0.2,0
		c-0.1,0.3-0.2,0.5-0.3,0.6c-0.1,0.2-0.2,0.4-0.2,0.6c-0.1,0-0.2,0-0.3,0c0,0.2-0.1,0.9-0.3,2c-0.3,1.1-0.5,1.7-0.6,1.7
		c0,1-0.3,2.5-0.8,4.5c-0.5,1.9-0.6,3.3-0.4,4c-0.1,0-0.2,0-0.3,0c-0.1,0.3-0.1,0.5-0.2,0.7c-0.1,0.2-0.1,0.4-0.1,0.5
		c0,0-0.1,0-0.2,0c-0.1,0.6-0.2,1-0.4,1.3C175.9,59.6,175.5,59.8,174.8,59.9z M182.5,33.8c0,0,0.1,0,0.2-0.1c0.1,0,0.2-0.1,0.3-0.1
		c0,0,0-0.1,0-0.1c-0.1,0-0.2,0.1-0.3,0.1c-0.1,0-0.2,0-0.2,0.1C182.5,33.7,182.5,33.8,182.5,33.8z M183.9,33c0,0-0.1,0.1-0.1,0.1
		c0,0,0,0.1,0,0.3C183.9,33.3,183.9,33.2,183.9,33z M184.6,41.1c0.3-0.1,0.7-0.3,1.1-0.4c0.4-0.2,0.8-0.3,1.1-0.3l0-0.1
		c0.1,0,0.3,0,0.4,0c-0.1-0.1-0.1-0.2-0.2-0.2c0,0.1,0,0.1-0.1,0.1c-0.2-0.1-0.6,0-1.3,0.2C184.9,40.7,184.6,40.9,184.6,41.1z
		 M185,33l-0.1-0.1l-0.3,0.2l0.1,0.1C184.7,33,184.8,33,185,33z M185.5,32.6c0,0,0.1,0,0.1,0c0,0-0.2,0-0.3,0l0.1,0.1
		C185.4,32.6,185.4,32.6,185.5,32.6z M186.7,32.3c0.1-0.1,0.4-0.2,0.8-0.2l0.1,0.1c0-0.1,0-0.1,0-0.2c-0.2,0-0.5,0.1-0.7,0.2
		c-0.3,0.1-0.5,0.2-0.7,0.1c0,0,0,0.1,0,0.2C186.4,32.4,186.6,32.4,186.7,32.3z M187.6,40c0.1,0,0.3-0.1,0.4-0.1
		C187.9,39.9,187.8,39.9,187.6,40c-0.1-0.1-0.3-0.1-0.4-0.1c0,0,0,0.1,0,0.1C187.4,40.1,187.5,40,187.6,40z M187.8,32
		c0,0,0.1-0.1,0.2-0.2s0.2-0.1,0.3-0.2c0,0-0.3,0-0.6,0.1c0,0.1,0,0.2,0,0.3C187.6,32,187.7,32,187.8,32z M189.9,31.3
		c-0.1,0-0.2,0-0.2,0c-0.1,0-0.1,0-0.2,0c0,0.1,0,0.1,0,0.2c-0.1,0-0.2,0-0.2,0l0-0.1c0,0-0.1,0,0,0.2c0,0-0.1,0-0.2,0l0,0.1
		C189.5,31.5,189.7,31.4,189.9,31.3z M189.9,30.7c0.1,0,0.2,0.1,0.2,0C190,30.5,189.9,30.5,189.9,30.7z M190.1,31.2c0,0,0.1,0,0.1,0
		l0.1-0.4l-0.4,0.2c0,0,0,0.1,0,0.2C190,31.3,190.1,31.3,190.1,31.2z M191.2,31c0.1-0.1,0.1-0.2,0.2-0.3l-0.2,0c0,0,0,0.1,0,0.1
		C191.2,30.9,191.2,30.9,191.2,31z M191.6,30.8l0.3-0.2c-0.2,0-0.3-0.1-0.4-0.2C191.5,30.5,191.6,30.7,191.6,30.8z"/>
</g>
<g>
	<path style="fill:#CDD500;" d="M193.3,59.2c-0.5-0.3-0.7-1-0.7-2.1c0.1-0.6,0.2-1.2,0.3-1.8c0.1-0.5,0.3-1.2,0.6-2
		c0.3-1.1,0.9-2.2,1.7-3.5c0.8-1.3,1.3-2.3,1.4-3.1c0,0,0.1,0,0.1,0c0,0,0.1,0,0.1,0c0-0.2,0-0.3-0.1-0.4c0.1-0.1,0.3-0.3,0.5-0.6
		c0.2-0.4,0.4-0.7,0.5-0.9c-0.1-0.7-0.2-1,0-1.1c0.1-0.1,0.3-0.3,0.5-0.9c0.3-0.8,1-1.3,2-1.7c1-0.3,1.9-0.5,2.8-0.6
		c0.3,0.1,0.5,0.3,0.8,0.6c0.2,0.3,0.4,0.7,0.4,1c0.4,0,0.8-0.1,1.2-0.3c0.4-0.2,0.9-0.3,1.4-0.6c0.6-0.3,1.3-0.6,2-0.9
		c0.7-0.3,1.3-0.5,2-0.7l0.2-0.2c0.3-0.1,0.6-0.1,1-0.1c0.4,0,0.8,0.1,1.1,0.3c0.3,0.2,0.4,0.4,0.3,0.5c-0.1,0.1-0.3,0.2-0.6,0.4
		c-0.4,0.3-0.7,0.2-0.9-0.3c-2.2,0.2-3.7,0.7-4.4,1.6c-0.8,0.9-1.8,1.5-3.1,1.9c-0.2,0.3-0.3,0.6-0.3,0.9c-0.1,0.3-0.1,0.6-0.3,0.9
		l0.1,0.1c-0.3,0.9-0.6,2-1,3.2c-0.4,1.2-0.8,2.3-1.4,3.2c-0.1,0-0.2,0.1-0.3,0.2l0,0.1c0,0-0.1,0-0.1,0c0,0-0.1,0-0.1,0
		c0,0,0.1,0,0.1,0.1c0,0,0.1,0.1,0.1,0.1c0,0,0,0.1,0,0.2c-0.2,0-0.3,0.1-0.4,0.2c0,0,0,0.1,0,0.1c-0.1,0.1-0.2,0.1-0.3,0.3
		c0,0.4-0.6,1.3-1.9,2.7c-1.3,1.3-2.4,2.1-3.2,2.3c0,0.1-0.2,0.2-0.4,0.3c-0.2,0-0.4,0.1-0.5,0.1c-0.2,0.3-0.3,0.4-0.5,0.5
		C193.8,59.2,193.6,59.2,193.3,59.2z M194,57.6c0.2-0.1,0.4-0.2,0.7-0.2l0-0.1c0.1-0.1,0.3-0.1,0.4-0.1c0.1,0.2,0.6,0,1.3-0.5
		c0.7-0.5,1.5-1.4,2.4-2.5c0.9-1.1,1.7-2.5,2.5-4.1c0.8-1.6,1.3-3.4,1.5-5.4c-0.2,0.2-0.7,0.4-1.5,0.5c-0.8,0.2-1.5,0.2-2.2,0.1
		c-0.1,0.1-0.3,0.2-0.5,0.3c-0.2,0.1-0.4,0.2-0.4,0.3c-0.3,0.4-0.7,1.1-1.2,2c-0.5,0.9-1,2-1.5,3.1c-0.5,1.2-1,2.3-1.3,3.5
		C194,55.8,193.9,56.8,194,57.6z M201.5,43.4c0.2,0,0.4-0.1,0.7-0.1c0.3-0.1,0.5-0.2,0.7-0.4c0-0.3-0.1-0.4-0.1-0.5
		c-0.1-0.1-0.2-0.2-0.3-0.4c-0.4,0-0.6,0.1-0.6,0.2c-0.3,0.1-0.5,0.1-0.6,0.1c-0.2,0-0.3,0.1-0.4,0.2c-0.2,0.2-0.2,0.4,0,0.5
		l0.1,0.1C201,43.3,201.2,43.4,201.5,43.4z"/>
</g>
<g>
	<path style="fill:#CDD500;" d="M209.7,58.1c-0.5-0.3-0.7-1-0.6-2.2c0.1-0.6,0.2-1.2,0.3-1.8c0.1-0.5,0.3-1.2,0.6-2
		c0.3-1,0.9-2.2,1.8-3.5c0.9-1.3,1.3-2.3,1.5-3.1c0,0,0.1,0,0.1,0c0,0,0.1,0,0.1,0c0-0.2,0-0.3-0.1-0.4c0.1,0,0.3-0.3,0.5-0.6
		c0.2-0.4,0.4-0.7,0.5-0.9c-0.1-0.7-0.1-1,0-1.1c0.1,0,0.3-0.3,0.5-0.9c0.3-0.8,1-1.3,2-1.6c1-0.3,1.9-0.5,2.8-0.5
		c0.3,0.1,0.5,0.3,0.7,0.6c0.2,0.4,0.4,0.7,0.4,1c0.4,0,0.8-0.1,1.2-0.3c0.4-0.2,0.9-0.3,1.4-0.5c0.6-0.3,1.3-0.6,2-0.9
		c0.7-0.3,1.4-0.5,2-0.7l0.2-0.2c0.3-0.1,0.6-0.1,1-0.1c0.4,0,0.8,0.1,1.1,0.4c0.3,0.2,0.4,0.4,0.3,0.5c-0.1,0.1-0.3,0.2-0.6,0.4
		c-0.5,0.3-0.7,0.2-0.9-0.3c-2.2,0.1-3.7,0.6-4.5,1.5c-0.8,0.9-1.8,1.5-3.1,1.8c-0.2,0.3-0.3,0.6-0.3,0.9c-0.1,0.3-0.2,0.6-0.3,0.9
		l0.1,0.1c-0.3,0.9-0.6,2-1,3.2c-0.4,1.2-0.9,2.3-1.5,3.2c-0.1,0-0.2,0.1-0.3,0.2l0,0.1c0,0-0.1,0-0.1,0c0,0-0.1,0-0.1,0
		c0,0,0.1,0,0.1,0.1c0,0,0.1,0.1,0.1,0.1c0,0,0,0.1,0,0.2c-0.2,0-0.3,0.1-0.4,0.2c0,0,0,0.1,0,0.1c-0.1,0.1-0.2,0.1-0.3,0.3
		c0,0.4-0.6,1.3-2,2.6s-2.4,2.1-3.2,2.2c0,0.1-0.2,0.2-0.4,0.2c-0.2,0-0.4,0.1-0.5,0.1c-0.2,0.3-0.3,0.4-0.5,0.5
		C210.2,58,209.9,58,209.7,58.1z M210.4,56.4c0.2-0.1,0.4-0.2,0.7-0.2l0-0.1c0.1,0,0.3-0.1,0.4-0.1c0.1,0.2,0.6,0,1.3-0.5
		c0.7-0.5,1.6-1.4,2.5-2.5c0.9-1.1,1.8-2.5,2.6-4s1.3-3.4,1.6-5.4c-0.2,0.2-0.7,0.4-1.5,0.5c-0.8,0.2-1.5,0.2-2.2,0.1
		c-0.1,0.1-0.3,0.2-0.5,0.3c-0.2,0.1-0.4,0.2-0.4,0.3c-0.3,0.4-0.7,1.1-1.2,2s-1.1,2-1.6,3.1c-0.5,1.1-1,2.3-1.3,3.5
		C210.4,54.6,210.3,55.6,210.4,56.4z M218.1,42.3c0.2,0,0.4,0,0.7-0.1c0.3-0.1,0.5-0.2,0.7-0.4c0-0.3-0.1-0.4-0.1-0.5
		c-0.1-0.1-0.2-0.2-0.3-0.4c-0.4,0-0.6,0.1-0.6,0.2c-0.3,0.1-0.5,0.1-0.6,0.1c-0.2,0-0.3,0.1-0.4,0.2c-0.2,0.2-0.2,0.4,0,0.5
		l0.1,0.1C217.6,42.2,217.8,42.3,218.1,42.3z"/>
</g>
<g>
	<path style="fill:#CDD500;" d="M241.2,39.2c-0.1,0.3-0.2,0.6-0.4,0.9c-0.2,0.3-0.3,0.6-0.3,0.9c-0.3,1-0.5,1.6-0.5,1.7
		c0,0-0.1,0-0.1,0c0,0-0.1,0-0.1,0c0,0.1,0,0.3,0,0.4c0,0.1-0.1,0.1-0.3,0.1c0,0.4-0.1,0.7-0.3,1.1c-0.2,0.3-0.3,0.6-0.3,0.8
		c-0.1,0.1-0.3,0.7-0.6,1.7c-0.3,1-0.5,2-0.7,3.1l0,0.1c0,0.1-0.1,0.2-0.1,0.2c-0.3,1.3-0.3,2.2-0.2,2.7c0.1,0.3,0.4,0.4,0.7,0.4
		c0.1,0,0.2,0,0.3-0.1c0.3,0,0.9-0.3,1.7-0.8c0.9-0.5,1.6-1.1,2.3-1.6c0.1-0.1,0.3-0.2,0.5-0.4c0.2-0.2,0.4-0.2,0.6-0.1
		c-0.1,0-0.2,0-0.2,0c-0.1,0-0.1,0-0.2,0c0,0,0,0.1,0,0.1c0,0,0,0.1,0,0.1c0,0-0.1,0-0.1,0.1c0,0-0.1,0.1-0.1,0.1
		c0,0-0.1,0.1-0.1,0.3l-0.3,0c0,0.1,0,0.2,0,0.3c-0.1,0-0.3,0.2-0.7,0.3c0,0.1,0,0.2,0.1,0.3c0-0.3,0.2-0.5,0.6-0.6
		c-0.2,0.1-0.3,0.3-0.5,0.7c0,0-0.1,0-0.3,0.1c-0.2,0-0.3,0.1-0.4,0.1c-0.1,0-0.1,0.1,0,0.2c0,0,0.1,0,0.2-0.1
		c0.1-0.1,0.2-0.1,0.3-0.1c-0.2,0-0.3,0.2-0.4,0.3c-0.1,0.2-0.2,0.3-0.2,0.3c-0.2,0-0.4,0.2-0.6,0.3c0,0.2-0.2,0.3-0.4,0.5
		c-0.2,0.1-0.4,0.2-0.5,0.3c-0.4,0.2-0.8,0.4-1.2,0.6c-0.4,0.2-0.6,0.3-0.7,0.3c-0.5,0.1-1,0.1-1.5,0.1c-0.4-0.2-0.7-0.6-0.7-1.1
		c-0.1-0.5-0.1-0.9-0.1-1.1l0.3-1.2l0.2-0.5c0-0.2,0.1-0.3,0.1-0.5c0-0.2,0.1-0.4,0.2-0.6c-0.8,1.4-1.7,2.8-2.9,4.1
		c-1.2,1.3-2.4,2-3.7,2.1c-0.9,0-1.5-0.1-2.1-0.3c0-0.2,0-0.3-0.1-0.3c-0.1,0-0.2,0-0.2,0.1c0,0-0.1,0.1-0.2,0.1
		c-0.8-0.4-1.4-1.2-1.6-2.4c-0.1-0.8,0-1.6,0.2-2.6c0.2-1,0.6-1.9,1.2-2.9c0.1,0,0.2,0,0.2,0.1c0.1,0,0.1,0,0.1-0.2l-0.1,0
		c0-0.1,0-0.2,0.1-0.2c0-0.1,0.1-0.1,0.1-0.2c-0.1,0-0.2,0-0.2-0.1c0.3-0.1,0.5-0.2,0.9-0.4c0-0.1-0.2-0.2-0.6-0.4
		c0.2-0.1,0.3-0.2,0.2-0.3c0,0,0.1,0,0.1,0c1-2,2.3-3.8,4.1-5.5c1.8-1.7,3-2.5,3.6-2.4c0-0.1,0.3-0.3,1-0.5c0.7-0.2,1.3-0.2,1.9-0.1
		c0.5,0.1,0.7,0.2,0.7,0.5c0,0.1,0,0.2,0.1,0.3c0.4,0,0.8,0,1,0c0.2-0.4,0.3-0.9,0.6-1.4c0.2-0.5,0.4-1,0.6-1.4c0,0,0-0.1,0.1-0.2
		c0-0.1,0.1-0.2,0.1-0.3c0.2-0.5,0.4-1,0.7-1.5c0.3-0.5,0.5-1,0.6-1.6l0.4-0.4c0-0.4,0.1-0.7,0.3-1c0.2-0.3,0.4-0.6,0.6-0.8
		c0.2-0.5,0.7-0.7,1.3-0.7c0.6,0,0.9,0.2,0.8,0.5c0,0.3,0,0.5,0,0.8c0,0.3-0.2,0.7-0.5,1.1c-0.7,0.9-1.4,1.9-1.9,3
		c-0.2,0.3-0.3,0.7-0.5,1c-0.2,0.4-0.3,0.7-0.5,1c-0.2,0.6-0.5,1.1-0.8,1.7c-0.1,0.2-0.2,0.4-0.2,0.5
		C241.3,39,241.2,39.1,241.2,39.2z M236.9,46.9c-0.2,0.4-0.3,0.6-0.3,0.7l0.3-1l0-0.1l0.1-0.3l0.1,0l0-0.1l0.1-0.3
		c0.1,0,0.2-0.2,0.2-0.3l-0.1,0c0-0.1,0-0.2,0.1-0.3c0.1,0,0.2,0,0.2,0s0,0,0-0.1c-0.1-0.1-0.1-0.2-0.1-0.3c0,0,0.1,0,0.1-0.1
		c0.1-0.4,0.2-0.7,0.3-1c0.1-0.3,0.2-0.6,0.3-0.8c0-0.1,0.1-0.3,0.1-0.5c0-0.2,0.1-0.3,0.2-0.5c-0.1,0-0.2,0-0.2,0c0,0-0.1,0-0.1,0
		c-0.5,0-0.7-0.2-0.7-0.6c0-0.5,0.2-0.9,0.7-1.3c0.5-0.4,0.7-0.7,0.6-1c0-0.1-0.1-0.1-0.1-0.2c0,0-0.1,0-0.1,0c0,0-0.1,0-0.1,0
		c-0.3-0.4-0.8-0.7-1.3-0.8c-1.3,0-2.8,0.8-4.5,2.7c-1.7,1.8-3.1,3.8-4.2,5.9c-0.6,1.2-1,2.5-1.3,3.8c-0.3,1.3-0.2,2.4,0.2,3.2
		c0.5,0.9,1.2,1.3,1.9,1.3c0.8,0,1.6-0.3,2.5-0.7c1-0.5,2-1.4,2.9-2.7c1-1.3,1.6-2.4,2-3.2C236.6,48,236.7,47.5,236.9,46.9
		L236.9,46.9z M227,46.5c0.1,0,0.2,0.1,0.3,0.1c0,0,0,0.1,0,0.1c0,0,0,0.1,0,0.1c-0.1,0-0.2,0-0.2,0C227.1,46.7,227.1,46.6,227,46.5
		z M237.7,48.7L237.7,48.7L237.7,48.7z M238.2,48.2c0,0.2-0.1,0.3-0.1,0.5c-0.1,0.2-0.1,0.3-0.1,0.6c0,0-0.1,0-0.1,0
		C237.8,48.7,238,48.4,238.2,48.2z M238.7,46.5c0-0.1,0.1-0.2,0-0.5l0.3,0c0,0.1-0.1,0.2-0.1,0.2c0,0-0.1,0.1-0.1,0.2L238.7,46.5z
		 M239,45.2l0.2,0l0,0.2c-0.1,0-0.2,0-0.2,0C239,45.3,239,45.3,239,45.2z M240,43c0.1-0.2,0.1-0.3,0.2-0.5c0.1,0.3,0,0.7-0.2,1
		c0,0-0.1,0-0.1,0C239.9,43.3,239.9,43.1,240,43z M240.8,40.9c0,0,0-0.1,0.1-0.2L240.8,40.9z M241.2,40.2L241.2,40.2
		c0-0.1,0-0.3,0-0.4c0,0,0,0.1,0.1,0.1c0,0.1,0,0.2,0,0.3L241.2,40.2z M241.5,35.2C241.4,35.2,241.4,35.2,241.5,35.2
		c-0.1-0.1-0.2,0-0.3,0.1l0.1,0.1L241.5,35.2z M241.3,39.7c0-0.3,0.1-0.5,0.3-0.5C241.6,39.3,241.5,39.5,241.3,39.7z M241.8,38.6
		l0.1-0.1C241.9,38.6,241.9,38.6,241.8,38.6z M242.5,36.7c0.1-0.1,0.2-0.2,0.2-0.2L242.5,36.7z M242.7,36.4c0-0.2,0-0.3,0.1-0.4
		s0.2-0.2,0.3-0.4c0,0.1-0.1,0.2-0.2,0.4C242.8,36.3,242.8,36.4,242.7,36.4z"/>
</g>
<g>
</g>
<g>
	<path style="fill:#CDD500;" d="M261,55.1C261,55,261,55,261,55.1c0-0.1,0-0.1,0-0.2c-0.1,0-0.2,0-0.3,0c-0.1,0-0.2-0.1-0.3-0.1
		c0,0,0.1,0,0.1-0.1l-0.1-0.5c0,0,0.1,0,0.2,0c0-0.6,0.3-1,0.7-1.5c0.3-0.3,0.6-0.8,0.9-1.6c0.3-0.8,0.6-1.7,0.9-2.6
		c0.3-0.9,0.6-1.9,0.8-2.8c0.2-0.9,0.4-1.6,0.6-2.1c0.1,0,0.1,0.1,0,0.4c-0.1,0.3-0.2,0.3-0.1,0.3c-0.2-0.3-0.2-0.6,0-1.1
		c0.1,0,0.2,0.1,0.3,0.1c0-0.2,0.2-0.7,0.4-1.5s0.4-1.3,0.4-1.6c0,0,0.1,0,0.2,0c0,0,0-0.1,0-0.2c-0.4,0-0.9,0.1-1.3,0.4
		c-0.4,0.2-0.9,0.4-1.3,0.4c0,0,0,0.1,0,0.2l-0.7,0.2v0.1c-0.8,0-1.5,0.2-2.1,0.6c-0.6,0.4-1.3,0.5-1.9,0.4c0,0,0-0.1,0-0.1
		c-0.5-0.1-0.6-0.4-0.3-0.8c0.3-0.4,0.6-0.7,0.9-0.7c0,0,0-0.1,0.1-0.1c0.3,0,0.6,0,0.8,0s0.5-0.1,0.7,0c0.1-0.3,0.2-0.4,0.1-0.3
		c0.3,0,0.6,0,0.9-0.1c0.3-0.1,0.6-0.1,0.9-0.1c0-0.1,0.5-0.3,1.5-0.7c0.9-0.4,1.4-0.4,1.2-0.2c0,0,0.2-0.1,0.5-0.3
		c0.3-0.2,0.5-0.3,0.6-0.3l0.5-1c0,0-0.1,0-0.1-0.1c0-0.3,0.1-0.5,0.3-0.7c0,0,0.1,0.1,0.1,0.1c0.3-0.6,0.6-1.5,1-2.6
		c0.4-1.1,0.7-2.1,1-3c0,0,0.1,0,0.1,0c0-0.1,0-0.2,0.1-0.2c0.1,0,0.1-0.1,0-0.4c-0.6,0.2-1.1,0.4-1.6,0.6c-0.5,0.2-1.1,0.4-1.7,0.4
		c0,0,0,0.1,0,0.3c-0.7,0.1-1.2,0.4-1.6,0.7c-0.4,0.3-0.8,0.5-1.3,0.4c0,0,0,0.1,0,0.1c0,0,0,0.1,0,0.1c-0.1,0-0.2,0-0.2,0
		c0,0-0.1,0-0.2,0v-0.1c0,0-0.1,0-0.1,0c0,0-0.1,0-0.1,0v0.1c-0.6,0.1-1,0.3-1.3,0.4c-0.3,0.2-0.7,0.3-1.1,0.4c0,0,0-0.1,0-0.1
		c-0.2,0-0.3,0-0.3,0v0.1c-0.2,0-0.4-0.2-0.4-0.6c-0.1-0.4,0.1-0.7,0.5-0.7c0,0,0-0.1,0-0.1c0.1,0,0.2,0,0.2,0s0.1,0,0.2,0
		c0,0,0.3-0.2,0.8-0.4c0.6-0.2,1.2-0.5,1.9-0.7c0.7-0.3,1.4-0.5,2.1-0.7s1.2-0.3,1.4-0.3c0-0.1,0-0.2,0.1-0.2c0,0,0.1-0.1,0.3-0.1
		v-0.1c0,0,0.1,0,0.2,0s0.2,0,0.2,0c0-0.1,0-0.2,0-0.3c0.1,0,0.3,0,0.4,0c0.1,0,0.3,0,0.4,0c0-0.1,0-0.1,0-0.2c0.3,0,1-0.2,2.1-0.6
		c1.2-0.3,2.4-0.7,3.7-1c1.3-0.3,2.5-0.6,3.5-0.9c1-0.2,1.6-0.3,1.6-0.3c0.6,0,1.2-0.2,1.8-0.4c0.6-0.2,1.2-0.3,1.9-0.3
		c0-0.1,0-0.2,0.1-0.2c0.6,0.1,1.1,0,1.5-0.3v-0.1c0,0,0.1,0,0.3,0s0.3,0,0.4,0c-0.1,0-0.1,0.1-0.1,0.3c0,0,0.1,0,0.1,0s0.1,0,0.1,0
		c0-0.1,0-0.1,0-0.2c0,0,0-0.1,0-0.1c0.9-0.1,1.6-0.3,2.2-0.5s1.3-0.3,2-0.4c0,0,0-0.1,0-0.1c1.1-0.1,1.7,0.1,1.8,0.4
		c0.1,0.4,0,0.6-0.2,0.6c-0.1,0.1-0.2,0.2-0.2,0.3c-0.5,0.1-1.2,0.3-2,0.5c-0.8,0.3-1.4,0.5-1.6,0.6c0,0.1,0,0.2-0.1,0.3
		c-0.1,0-0.2,0-0.4-0.1c0-0.8-0.4-0.9-1.3-0.5c-0.9,0.5-2.3,0.8-4.2,0.8v0.1c-0.1,0-0.3,0-0.5,0c-0.2,0-0.3,0-0.5,0l-0.1,0.1
		c-0.2,0-0.4,0-0.6,0.1c-0.2,0.1-0.3,0.1-0.5,0.1c0,0,0,0.1-0.1,0.1c0,0-0.1,0-0.2,0c-0.1,0-0.2,0-0.2,0c0,0.1-0.2,0.2-0.7,0.3
		c-0.5,0-0.8,0-0.9,0c0,0.2-0.3,0.3-0.8,0.3v0.1c-0.4,0-0.8,0.1-1.1,0.2c-0.3,0.1-0.7,0.1-1,0.1c0,0.1,0,0.2-0.1,0.2
		c0,0,0-0.1,0-0.1c0,0,0-0.1,0-0.1c0,0-0.1,0-0.1,0c-0.1,0.2-0.2,0.3-0.5,0.3c-0.2,0-0.4,0.1-0.5,0.1c0,0.1,0,0.2,0,0.2
		c-0.3,0-0.7,0.1-1.1,0.2c-0.4,0.1-0.7,0.3-0.8,0.6c0,0,0,0.1-0.1,0.3c-0.1,0.2-0.1,0.3,0,0.3c-0.5,1.4-0.9,2.4-1.3,3.1
		c-0.3,0.7-0.7,1.8-1.1,3.2c0.1,0.1,0.1,0.1,0.2,0.1c0-0.1,0.6-0.3,1.7-0.6c1.1-0.3,1.8-0.4,2-0.6v-0.1c0.3,0,0.6-0.1,0.7-0.2
		c0.1-0.1,0.4-0.1,0.7-0.1c0-0.1,0-0.2,0.1-0.3c0.1,0,0.2,0.1,0.2,0.3c0,0,0.1,0,0.1-0.1c0-0.1,0-0.2,0.1-0.3c0.5-0.1,1-0.2,1.4-0.3
		c0.4-0.1,0.9-0.2,1.3-0.2c0-0.2,0.1-0.3,0.3-0.3c0.1,0,0.1-0.1,0.1-0.2c1-0.2,2.1-0.4,3.2-0.6c1.1-0.2,2.1-0.3,3-0.3
		c0,0,0-0.1,0-0.1c0,0,0-0.1,0-0.1c0,0,0.1,0.1,0.1,0.2c0.4,0.1,0.6,0.3,0.6,0.7c0,0.4-0.2,0.7-0.7,0.8l-0.1-0.1
		c-0.3,0.1-0.5,0.2-0.8,0.1c-0.3,0-0.6-0.1-0.8-0.1v0.1c-0.2,0.1-0.5,0.1-0.9,0.1c-0.4,0-0.6,0.1-0.6,0.2c-0.1,0-0.1-0.1-0.1-0.1
		c0,0-0.1,0-0.1,0v0.1c-2.8,0.3-4.3,0.7-4.4,1c-0.4,0.1-1.1,0.3-2,0.5c-0.9,0.3-1.4,0.4-1.4,0.6c-0.8,0-1.6,0.1-2.3,0.4
		c-0.8,0.3-1.5,0.5-2.2,0.8c0,0,0,0.1,0,0.2c0,0-0.1,0-0.2,0c-0.1,0.3-0.2,0.5-0.4,0.6c-0.1,0.2-0.2,0.4-0.2,0.6c-0.1,0-0.2,0-0.3,0
		c0,0.2-0.2,0.9-0.5,1.9c-0.3,1.1-0.6,1.6-0.8,1.6c-0.1,1-0.5,2.5-1.2,4.4c-0.7,1.9-0.9,3.2-0.7,3.9c-0.1,0-0.2,0-0.3,0
		c-0.1,0.3-0.2,0.5-0.3,0.6c-0.1,0.2-0.1,0.3-0.1,0.5c0,0-0.1,0-0.2,0c-0.1,0.6-0.3,1-0.5,1.3C262.2,54.9,261.7,55.1,261,55.1z
		 M271,29.8c0,0,0.1,0,0.2-0.1c0.1,0,0.2-0.1,0.3-0.1c0,0,0-0.1,0-0.1c-0.1,0-0.2,0.1-0.3,0.1c-0.1,0-0.2,0-0.2,0
		C270.9,29.7,271,29.8,271,29.8z M272.5,29.1c0,0-0.1,0.1-0.1,0.1c0,0,0,0.1,0,0.3C272.4,29.4,272.4,29.3,272.5,29.1z M272.4,37.3
		c0.3-0.1,0.7-0.2,1.1-0.3c0.4-0.1,0.8-0.2,1.1-0.2v-0.1c0.1,0,0.3,0,0.4,0.1c-0.1-0.1-0.1-0.2-0.1-0.3c0,0.1,0,0.1-0.1,0.1
		c-0.2-0.1-0.6-0.1-1.4,0.1S272.4,37.1,272.4,37.3z M273.5,29.2l-0.1-0.1l-0.3,0.1l0.1,0.1C273.3,29.2,273.4,29.2,273.5,29.2z
		 M274,28.8c0,0,0.1,0,0.1,0c0,0-0.2,0-0.3,0l0.1,0.1C273.9,28.9,274,28.8,274,28.8z M275.3,28.6c0.1-0.1,0.4-0.1,0.8-0.2l0.1,0.1
		c0-0.1,0-0.1,0-0.2c-0.2,0-0.5,0-0.7,0.1c-0.3,0.1-0.5,0.1-0.7,0.1c0,0,0,0.1,0,0.2C275,28.7,275.2,28.7,275.3,28.6z M275.6,36.4
		c0.1,0,0.3-0.1,0.4-0.1C275.8,36.3,275.7,36.3,275.6,36.4c-0.1-0.1-0.3-0.1-0.4-0.1c0,0,0,0.1,0,0.1
		C275.3,36.4,275.4,36.4,275.6,36.4z M276.4,28.5c0,0,0.1-0.1,0.2-0.2c0.1-0.1,0.2-0.1,0.3-0.2c0,0-0.3,0-0.6,0c0,0.1,0,0.2-0.1,0.3
		C276.3,28.4,276.3,28.4,276.4,28.5z M278.6,27.9c-0.1,0-0.2,0-0.2,0c-0.1,0-0.1,0-0.2,0c0,0.1,0,0.2,0,0.2c-0.1,0-0.2,0-0.2,0v-0.1
		c0,0-0.1,0-0.1,0.2c0,0-0.1,0-0.2,0v0.1C278.1,28.1,278.4,28,278.6,27.9z M278.7,27.3c0.1,0,0.1,0.1,0.2,0.1
		C278.7,27.2,278.7,27.1,278.7,27.3z M278.8,27.9c0,0,0.1,0,0.1,0l0.1-0.4l-0.4,0.2c0,0,0,0.1,0,0.2
		C278.7,27.9,278.7,27.9,278.8,27.9z M279.9,27.7c0.1-0.1,0.2-0.2,0.2-0.3h-0.2c0,0,0,0.1,0,0.1C279.9,27.6,279.9,27.7,279.9,27.7z
		 M280.3,27.6l0.3-0.1c-0.2,0-0.3-0.1-0.4-0.3C280.2,27.3,280.3,27.4,280.3,27.6z"/>
</g>
<g>
	<path style="fill:#CDD500;" d="M288.6,52.6l0.1,0c0.2-0.2,0.3-0.3,0.5-0.4c0.4-0.3,0.9-0.8,1.5-1.3c0.5-0.5,1-1,1.4-1.6
		c0.1-0.1,0.3-0.2,0.5-0.4c0.2-0.2,0.4-0.3,0.6-0.1c-0.1,0-0.2,0-0.3,0.1l0,0.1l0,0.1c-0.1,0-0.2,0-0.2,0.1c0,0,0,0.1-0.1,0.3
		c-0.1,0-0.2,0.1-0.2,0.1c0,0-0.1,0-0.1,0c0,0,0.1,0.1,0.1,0.3c-0.1,0.1-0.2,0.2-0.3,0.3c-0.1,0.1-0.2,0.2-0.2,0.3
		c0,0.1,0,0.2,0.1,0.3c0-0.3,0.2-0.5,0.5-0.6c-0.2,0.2-0.3,0.4-0.3,0.7c0,0-0.1,0-0.3,0.1c-0.2,0.1-0.3,0.1-0.4,0.2
		c0,0.1,0,0.2,0.1,0.2c0,0,0.1-0.1,0.2-0.2c0.1-0.1,0.2-0.2,0.3-0.2c-0.1,0.1-0.3,0.2-0.4,0.3c-0.1,0.1-0.2,0.2-0.2,0.3
		c-0.1,0.1-0.2,0.2-0.3,0.3c-0.1,0.1-0.2,0.1-0.3,0.2c0,0.2-0.2,0.4-0.5,0.6c-0.3,0.2-0.6,0.4-0.7,0.5l-0.4,0.4l-0.1,0
		c0,0.1-0.1,0.2-0.3,0.3c-0.4,0.3-0.6,0.4-0.7,0.4c-0.1,0.1-0.3,0.2-0.6,0.4c-0.6,0.3-1.3,0.5-1.8,0.6c-0.3,0.1-0.6,0.1-0.9,0.1
		c-0.6,0-1.2-0.1-1.8-0.4c0-0.2,0-0.3-0.1-0.4c-0.1,0-0.2,0-0.2,0.1c0,0,0,0.1-0.2,0.1c-1-0.4-1.6-1.3-1.8-2.5
		c-0.1-0.8-0.1-1.6,0-2.5c0.1-0.9,0.5-1.8,1.1-2.8c0.3,0,0.4-0.1,0.3-0.2c0,0-0.1,0-0.1,0c0-0.1,0.1-0.3,0.1-0.4c0,0-0.1,0-0.1-0.1
		c0.2,0,0.4-0.1,0.8-0.4c0-0.2-0.1-0.3-0.4-0.3c-0.1,0,0-0.1,0.1-0.3c0,0,0.1,0,0.2,0c0.9-1.9,2.2-3.7,3.9-5.3
		c1.7-1.6,2.9-2.3,3.5-2.2c0-0.1,0.3-0.3,1-0.4c0.7-0.2,1.3-0.2,1.9-0.2c0.7,0.2,1,0.7,1,1.4c-0.1,0.8-0.1,1.4-0.1,1.9
		c-0.2,1.2-0.7,2.3-1.6,3.2c-0.9,0.9-1.9,1.6-3.1,2.1c-1.7,0.7-3.1,1.1-4.1,1c-1.1-0.1-1.4-0.8-0.9-2.1c-0.1,0.2-0.2,0.4-0.3,0.6
		s-0.2,0.4-0.3,0.5c-0.5,1.1-0.9,2.4-1.2,3.7c-0.3,1.3-0.2,2.4,0.3,3.2c0.5,0.9,1.1,1.4,1.9,1.4c0.8,0,1.6-0.1,2.5-0.5
		C287.6,53.3,288.1,53,288.6,52.6z M282.4,45.7c0,0,0-0.1,0-0.1c0.1,0,0.1,0,0.2,0c0,0,0,0.1,0,0.2s0,0.1,0,0.2c0,0-0.1,0-0.1,0
		C282.4,45.8,282.4,45.7,282.4,45.7z M291.8,37.7c-0.5-0.1-0.9,0-1.3,0.2l-0.1,0c-0.3,0.1-0.7,0.4-1.2,0.7c-0.1,0.1-0.2,0.2-0.3,0.3
		c-0.1,0.1-0.2,0.1-0.3,0.2l0.1,0.1c0,0.1,0,0.2,0,0.3c-0.1,0-0.2,0.1-0.3,0.2c-0.1,0.1-0.1,0.1-0.2,0.1c0,0,0,0.1,0.1,0.1
		c-0.3,0.2-0.6,0.5-1.1,0.9c-0.5,0.4-0.7,0.8-0.6,1.1c0,0-0.1,0-0.1,0c0,0-0.1,0-0.1,0l0.1,0.1c-0.2,0.1-0.3,0.3-0.5,0.5
		c-0.1,0.2-0.3,0.3-0.4,0.5c0,0,0.1,0.1,0.2,0.3c0,0-0.1,0-0.3,0c0,0.1,0,0.2,0,0.3c-0.1,0-0.1,0-0.1,0.1c0,0,0,0.1-0.1,0.2
		c0,0.1-0.1,0.1-0.1,0.2c0,0-0.1,0.1-0.1,0.1c0,0.2,0,0.3-0.1,0.3c0,0-0.1,0.1-0.1,0.1l0.1,0.1c-0.1,0-0.1,0-0.2,0
		c-0.3,1-0.2,1.6,0.1,1.7s1,0.1,1.9-0.2c0.3-0.1,0.8-0.3,1.7-0.7c0.9-0.4,1.7-0.9,2.4-1.7c1.2-1.1,1.9-2.4,2.1-3.8
		C293.5,38.1,293,37.5,291.8,37.7z"/>
</g>
<g>
	<path style="fill:#CDD500;" d="M294,57.9c-0.5,0-0.6-0.4-0.5-1c0.1-0.4,0.3-0.8,0.5-1.2c0.2-0.4,0.5-0.9,1-1.5
		c0.8-1.3,1.8-2.6,3.1-3.9c1.2-1.3,2.3-2.2,3.2-2.6c0-0.1,0-0.1,0.1-0.2c0-0.1,0-0.1,0.1-0.1c0-0.1,0-0.1,0-0.2
		c0.2-0.1,0.4-0.3,0.8-0.6s0.7-0.4,1.2-0.5l0-0.1c0,0,0.1-0.1,0.3-0.1c0,0-0.1-0.1-0.1-0.2c0.1,0,0.2-0.1,0.3-0.1
		c0.1-0.2,0.4-0.3,1-0.4c0,0,0-0.1,0-0.1c0,0,0-0.1,0-0.1c0.5-0.3,1.2-0.5,2.1-0.8c0.9-0.2,1.6-0.4,2.1-0.5c0.3-0.3,0.5-0.6,0.6-0.9
		c0.2-0.3,0.3-0.7,0.5-1c0.1-0.4,0.3-1,0.5-1.7c0.2-0.7,0.1-1.2-0.3-1.5c-0.2-0.2-0.6-0.3-0.9-0.3c-0.4,0-0.6,0-0.7,0
		c0,0,0-0.1,0-0.3c-0.2,0-0.2,0.1-0.1,0.3c-1.2,0-2.6,0.6-4.1,1.7c-1.5,1.1-2.5,1.9-3,2.4l0,0.1c-0.4,0.2-0.9,0.6-1.3,1.1
		c-0.4,0.6-0.8,0.9-1.1,0.9c0,0,0,0.1,0,0.1c0,0,0,0.1,0,0.1c-0.3,0.2-0.6,0.4-0.9,0.5c-0.3,0.1-0.6,0.1-1,0.1
		c-0.4-0.1-0.6-0.4-0.5-0.8c0.1-0.4,0.2-0.8,0.3-1.2c0.2,0,0.3,0,0.3-0.1c0-0.4,0.3-0.8,0.7-1.1c0.5-0.3,0.8-0.7,1-1.2
		c0.3-0.5,0.5-0.7,0.8-0.7c0.2-0.3,0.4-0.5,0.5-0.8c1.6-2.5,3.1-5.1,4.3-7.8c1.3-2.7,2.1-4.1,2.5-4.3c-0.1-0.2,0-0.5,0.2-0.8
		c0.1-0.3,0.1-0.6,0.2-0.9c0.1-0.3,0.4-0.5,0.9-0.6c0.3,0,0.6,0.3,0.8,0.7c0.3,0.5,0.1,1-0.6,1.6c-1.5,2.4-2.8,4.4-3.7,5.9
		c-0.9,1.5-1.7,3-2.5,4.3c-0.8,1.4-1.1,2.3-1.1,2.7c0.3-0.2,0.7-0.5,1.2-0.8c0.5-0.3,0.9-0.4,1.1-0.5c0,0,0.1,0,0.1,0
		c0,0.2,0,0.2,0,0.2c0-0.1,0.1-0.1,0.2-0.2c0,0,0-0.1,0,0c0,0,0,0,0-0.2l0.1,0l0-0.1c0.8-0.4,1.8-0.7,2.9-1c1.1-0.3,2.2-0.3,3.1-0.2
		c0,0,0.1,0,0.1,0.1c1.2,0,1.8,0.8,1.6,2.4c-0.2,1.5-0.7,2.7-1.4,3.6c0.8,0,1.5,0.1,2.2,0.1c0.7,0.1,1.2,0.2,1.4,0.3
		c-0.9-0.2-1.7-0.3-2.5-0.3c-0.8,0-1.2,0.1-1.2,0.1c-2.4,2.7-4.7,5.4-6.9,8c-2.2,2.6-5,4.6-8.6,6C295,57.7,294.6,57.8,294,57.9z
		 M295.5,55.9c2.3-0.4,4.3-1.4,6-3c1.7-1.6,3.2-3.3,4.6-5c0.3-0.4,0.7-0.9,1.2-1.5c0.5-0.6,1.1-1.4,1.9-2.4c-0.7,0.1-1.7,0.4-2.8,1
		c-1.1,0.6-1.9,1.1-2.5,1.5c-0.1-0.1-0.3-0.1-0.5-0.1c0,0.2-0.1,0.3-0.4,0.4c-0.3,0.1-0.4,0.1-0.5,0.1c0,0.1,0,0.2,0,0.3
		c0,0.1,0,0.2,0,0.2c-0.1,0-0.3,0-0.4,0.1c-0.3,0.2-0.5,0.4-0.7,0.6c-0.5,0.4-1.4,1.3-2.7,2.7c-1.3,1.4-2.1,2.4-2.5,2.8
		c-0.8,1-1.3,1.7-1.3,2.1C294.9,55.9,295.1,56,295.5,55.9z M301.9,47.7c0-0.1,0.1-0.3,0.3-0.4c0.1,0,0.2,0,0.2,0
		C302.3,47.5,302.2,47.6,301.9,47.7z M302.6,46.9c0,0,0-0.1,0-0.1c0,0,0.1,0.1,0.2,0.1c0.1,0,0.2,0,0.3,0c0,0.1,0,0.1,0.1,0.1
		c-0.1,0-0.2,0-0.3,0.1C302.8,47.1,302.7,47,302.6,46.9z M303.5,46.5c0.1,0,0.1,0,0.2,0c0,0,0,0.1,0,0.2c0,0-0.1,0-0.1,0
		C303.6,46.6,303.5,46.5,303.5,46.5z"/>
</g>
<g>
	<path style="fill:#CDD500;" d="M312.8,56.2c-0.4-0.1-0.6-0.4-0.5-0.8c0.1-0.5,0.2-0.8,0.4-0.9l0.5-0.8l0.3,0
		c0.1-0.2,0.2-0.3,0.3-0.4c0.2-0.1,0.3-0.3,0.4-0.6c-0.3,0.1-0.4,0.2-0.5,0.2l0.4-0.6l0.1,0c0.1-0.1,0.2-0.2,0.2-0.4l0.1-0.1
		c0,0,0.1,0,0.1,0c0-0.1,0-0.2,0.1-0.3l-0.1,0.1l0.4-0.8l0.2,0c0-0.1,0.1-0.2,0.1-0.4c0.2-0.3,0.5-0.7,0.8-1.3l0.1,0
		c0.1-0.2,0.3-0.3,0.4-0.4c0.2-0.1,0.3-0.3,0.3-0.6c-0.1,0.1-0.3,0.2-0.4,0.2c0.1-0.2,0.3-0.4,0.4-0.6c0.2,0,0.3-0.2,0.3-0.4l0-0.1
		c0,0,0.1,0,0.1,0c0.1-0.1,0.1-0.2,0.1-0.3l-0.2,0.1c0.9-1.5,1.4-2.8,1.7-4l-0.5,0.3c-0.8,0.5-1.8,0.7-2.9,0.7
		c-0.4-0.2-0.6-0.3-0.6-0.5c0.1-1,0.6-1.4,1.5-1.1c1.1,0.1,2-0.2,2.8-0.8c0.5-0.6,0.9-1.2,1.1-1.9c0.2-0.3,0.5-0.4,0.9-0.3
		c0.4,0.1,0.6,0.3,0.6,0.6c-0.5,1.4-1.2,2.9-2.2,4.5c-1,1.6-1.8,3.5-2.4,5.6l0.1,0c0.1,0,0.1,0,0.1-0.1c0,0,0-0.1,0-0.2
		c1.4-2,2.4-3.3,2.9-3.8c0.5-0.5,1.2-1.2,2.2-2.2c0.1,0,0.3,0,0.4,0.1c0-0.1,0-0.1,0.1-0.1c0,0-0.1,0-0.1,0c0-0.1,0-0.2,0-0.3
		c0-0.1,0.3-0.3,0.7-0.7c0.4-0.4,0.8-0.8,1.3-1.2c0.4-0.4,1-1,1.7-1.8c0.1-0.1,0.2-0.2,0.4-0.2c0.2,0,0.3-0.1,0.5-0.2
		c0.3,0,0.5,0.2,0.9,0.6c0.2,0.1,0.3,0.3,0.3,0.5c0,0.1,0,0.2,0,0.3c-0.2,0.3-0.4,0.7-0.6,1c-0.2,0.3-0.4,0.7-0.5,1
		c-0.2,0.4-0.3,0.7-0.4,0.8c0.2,0.3,0.1,0.6-0.3,1c-0.4,0.4-0.7,0.5-0.9,0.3c-0.6-0.3-0.6-0.8,0-1.4c0.3-0.8,0.4-1.2,0.5-1.3
		c-0.2,0-0.3,0-0.3,0c-0.5,0.2-1.2,0.6-1.9,1.3c-0.8,0.7-1.3,1.2-1.6,1.5c-0.6,0.6-1.3,1.3-2.1,2.3c-0.8,1-1.6,1.9-2.5,2.9
		c-0.4,0.5-0.7,1-1.1,1.4c-0.4,0.4-0.7,0.8-1,1.3c-0.4,0.5-0.8,1.1-1.2,1.6c-0.4,0.5-0.6,1-0.8,1.3
		C313.5,56.3,313.1,56.3,312.8,56.2z M316.9,50.5c0.1,0,0.2,0,0.2,0l0-0.2c0,0-0.1,0-0.1,0C317,50.3,317,50.4,316.9,50.5z M318.1,46
		c-0.1,0-0.2,0-0.2,0.1c-0.1,0.1-0.2,0.2-0.2,0.4c0.1,0,0.2-0.1,0.3,0C318.1,46.3,318.1,46.1,318.1,46z M318.8,44.5l-0.2,0
		c0,0.2,0.1,0.3,0.3,0.3C318.9,44.7,318.8,44.6,318.8,44.5z M322.8,44.4c0.1,0,0.1,0,0.2,0l0-0.1c-0.1,0-0.2,0-0.4,0
		C322.6,44.3,322.6,44.3,322.8,44.4z"/>
</g>
<g>
	<path style="fill:#CDD500;" d="M345,40.8c0.6,0.3,0.7,0.9,0.3,1.6c-0.4,0.8-1.1,1.8-1.9,3c-0.9,1.2-1.8,2.6-2.8,4.1
		c-1,1.6-1.8,3.3-2.3,5.2l0.3-0.2c0.3-0.1,0.1,0.4-0.6,1.5c-0.7,1.1-1.1,1.8-1.1,2.1c-0.2,0.3-0.6,0.4-1,0.3
		c-0.4-0.1-0.6-0.3-0.6-0.6c0.5-1.5,1.2-3.1,2.4-4.8c1.1-1.7,2-3.7,2.8-6c-0.3,0-0.4,0-0.3,0c0,0,0.1,0.1,0,0.3
		c-0.1,0.1-0.6,0.7-1.6,1.8c-1,1.1-2,2.3-3.2,3.6c-1.2,1.3-2.3,2.5-3.3,3.5c-1.1,1.1-1.7,1.6-1.9,1.6c-0.1,0-0.3,0.1-0.7,0.3
		c-0.4,0.2-0.8,0-1.2-0.5c-0.2-0.3-0.3-0.6-0.2-0.9c0.9-2,2.2-4.3,3.9-6.9s2.9-4.7,3.6-6.2c0.1-0.2,0-0.3-0.2-0.1
		c-0.2,0.2-0.3,0.1-0.1-0.2c0.1-0.4,0.3-0.7,0.5-1c0.2-0.3,0.3-0.6,0.5-0.9c0.2-0.3,0.4-0.6,0.6-0.9c0.2-0.2,0.6-0.2,1.2-0.1
		s0.7,0.6,0.2,1.3c-0.6,1-1.3,2.1-2.1,3.3c-0.8,1.2-1.5,2.3-2.3,3.4l0,0.4c-0.4,0.7-1.1,1.8-2,3.2c-0.9,1.4-1.4,2.5-1.5,3.1
		c0.6,0,1.4-0.5,2.5-1.5c1.1-0.9,2.2-2,3.4-3.3c1.2-1.2,2.3-2.5,3.3-3.7c1-1.2,1.8-2.1,2.3-2.7c1.1-1.4,1.8-2.3,2-2.7
		C344,40.8,344.4,40.6,345,40.8z M334.2,53.1c0,0-0.1,0-0.1,0c0,0-0.1,0-0.2,0c0,0.1,0.1,0.2,0.1,0.2c0,0,0.1,0,0.2,0
		c0.1,0,0.2,0,0.2,0c0,0-0.1,0-0.1,0C334.3,53.3,334.3,53.2,334.2,53.1z M338.4,53.1c0.2,0.1,0.2,0.1,0.2-0.1c0-0.2-0.1-0.2-0.2-0.2
		c0,0.1,0,0.2,0,0.2C338.4,53.1,338.4,53.1,338.4,53.1z M340.5,46.7c0,0-0.1,0-0.1,0c0,0-0.1,0-0.1,0c0,0,0,0.1,0.1,0.3
		c0,0,0.1,0,0.1,0C340.5,46.9,340.5,46.8,340.5,46.7z"/>
</g>
<g>
	<path style="fill:#CDD500;" d="M344.8,58.3c0-0.1,0-0.2,0-0.2c0,0,0-0.1,0-0.3c-0.1,0-0.2,0-0.2,0.1c0,0.1-0.1,0.1-0.2,0.1
		c0-0.1-0.1-0.2-0.3-0.4c-0.2-0.2-0.3-0.4-0.3-0.7c-0.2,0,0.1-0.9,0.8-2.7c0.7-1.8,1.4-3.1,2.2-3.9c0.3,0,0.4,0,0.4-0.2
		c0,0-0.1,0-0.1,0l0.2-0.4c-0.1,0-0.1,0-0.1-0.1c0.1,0,0.3,0,0.4-0.1c0.1-0.1,0.3-0.1,0.5-0.2c0,0-0.1-0.2-0.4-0.4
		c0,0,0-0.1,0.2-0.2c0.1,0,0.1,0,0.2,0c1.3-1.8,2.9-3.4,4.8-4.9c1.9-1.5,3.2-2.1,3.8-1.8c0-0.1,0.4-0.2,1.1-0.3
		c0.7-0.1,1.3-0.1,1.8,0c0.5,0.1,0.7,0.4,0.6,0.7c0,0.2,0,0.3,0.1,0.3c0.2,0.1,0.5,0.1,0.8,0.2c0.4,0.1,0.5,0.4,0.3,1
		c-0.2,0.6-0.5,1.2-0.8,1.7c-0.2,0.4-0.3,0.7-0.5,1s-0.2,0.5-0.2,0.6c0,0-0.1,0-0.1,0c0,0-0.1,0-0.1,0c0,0.1,0,0.2,0,0.2
		c0,0.1,0,0.1,0,0.2c-0.1,0-0.2,0-0.2,0c0,0-0.1,0-0.2,0c0,0.4-0.2,0.7-0.3,1c-0.2,0.3-0.3,0.6-0.3,0.8c-0.1,0-0.5,0.6-1,1.6
		c-0.6,1-1,2-1.5,3.1c-0.2,0.6-0.4,1.2-0.6,1.7c-0.2,0.5-0.2,0.9-0.1,1.1l-0.1,0.1l0,0.1c0,0,0.1,0.1,0.2,0.2
		c0.1,0.1,0.4,0.2,0.9,0.1c0.3-0.1,0.9-0.3,1.8-0.6s1.7-0.8,2.4-1.2c0.2-0.1,0.4-0.2,0.6-0.3c0.2-0.1,0.4-0.1,0.6,0.1
		c-0.1,0-0.2,0-0.2,0c-0.1,0-0.1,0-0.2,0l0,0.1l0,0.1c0,0-0.1,0.1-0.1,0.2c-0.1,0.1-0.2,0.2-0.2,0.2c-0.1,0-0.1,0-0.2,0
		c0,0-0.1,0-0.2,0c0,0.1,0,0.2,0,0.3c-0.1,0.1-0.3,0.1-0.4,0.2c-0.1,0-0.2,0.1-0.4,0.1c0,0.1,0,0.2,0,0.3c0.3-0.3,0.5-0.4,0.6-0.4
		c-0.3,0.1-0.4,0.3-0.5,0.6c-0.2-0.1-0.4-0.1-0.8,0c-0.1,0-0.1,0,0,0.1c0,0,0.1,0,0.2-0.1c0.1-0.1,0.2-0.1,0.3-0.1
		c-0.2,0-0.3,0.1-0.5,0.2c-0.1,0.1-0.2,0.2-0.3,0.2c-0.1,0.1-0.3,0.2-0.6,0.3c-0.1,0.1-0.2,0.3-0.5,0.4c-0.3,0.1-0.4,0.2-0.6,0.2
		c-0.4,0.1-0.8,0.3-1.3,0.4c-0.4,0.1-0.7,0.2-0.9,0.2c-0.4,0.1-0.8,0-1.3-0.1c-0.2-0.2-0.3-0.4-0.4-0.6c-0.1-0.3-0.1-0.5-0.1-0.8
		c0-0.1,0-0.2,0-0.4s0-0.2,0-0.4l0-0.2c0,0,0.1-0.1,0.2-0.1l0-0.2c0,0,0-0.1,0-0.1l0-0.1c0.1-0.2,0.2-0.4,0.2-0.6l0.1,0
		c0.2-0.5,0.4-1.1,0.7-1.7c0.3-0.6,0.5-1,0.6-1.4l0.4-0.9c0-0.1,0.1-0.3,0.2-0.5c0.1-0.2,0.2-0.4,0.2-0.5c-0.2,0.5-0.5,0.9-0.8,1.4
		c-0.3,0.4-0.6,0.8-0.9,1.1c-0.7,0.7-1.4,1.4-2.3,2.1c-0.9,0.8-1.8,1.5-2.7,2.1c-0.9,0.6-1.8,1.1-2.6,1.3
		C346,58.6,345.3,58.6,344.8,58.3z M358.7,46.1c-0.5-0.1-0.7-0.3-0.7-0.6c0.1-0.5,0.3-0.9,0.8-1.2c0.5-0.3,0.8-0.6,0.8-0.9l-0.1-0.1
		c0,0-0.1-0.1,0-0.2c-0.4-0.6-0.8-0.9-1.3-0.9c-1.1-0.2-2.6,0.4-4.3,1.8c-1.7,1.5-3.3,3.2-4.8,5.1c-1.1,1.4-2.1,2.8-2.9,4.3
		c-0.8,1.4-1.3,2.5-1.4,3.3c0.1,0.1,0.2,0.2,0.5,0.3c0.3,0.1,0.5,0.1,0.8,0c0.6-0.1,1.3-0.4,2.2-0.9s1.8-1.1,2.7-1.8
		c0.9-0.7,1.8-1.4,2.5-2.1c0.8-0.7,1.4-1.3,1.8-1.9c0-0.1,0-0.2,0.1-0.2c0-0.1,0.1-0.2,0.1-0.3c0.1,0,0.3,0,0.5,0.1
		c0-0.1,0-0.1,0-0.2c0.2,0,0.3-0.1,0.2-0.1c0,0,0-0.1,0.2-0.3c0,0.1,0.2-0.2,0.7-0.9C357.8,47.7,358.3,47,358.7,46.1z M347.6,49.3
		c0,0,0-0.1,0-0.2c0.1,0,0.1,0,0.2,0c-0.1,0.1-0.1,0.2-0.1,0.3c0,0-0.1,0-0.1,0C347.6,49.4,347.6,49.4,347.6,49.3z"/>
</g>
<g>
	<path style="fill:#CDD500;" d="M361.3,60.2c-0.4-0.1-0.5-0.4-0.5-0.8c0.1-0.5,0.3-0.7,0.4-0.9l0.6-0.8l0.3,0
		c0.1-0.2,0.2-0.3,0.4-0.4s0.3-0.3,0.5-0.5c-0.3,0.1-0.4,0.2-0.5,0.2l0.4-0.6l0.1,0c0.1-0.1,0.2-0.2,0.2-0.4l0.1-0.1
		c0,0,0.1,0,0.1,0c0-0.1,0-0.2,0.1-0.3l-0.1,0.1l0.5-0.8l0.2,0c0.1-0.1,0.1-0.2,0.1-0.4c0.3-0.3,0.6-0.7,0.9-1.2l0.1,0
		c0.1-0.2,0.3-0.3,0.5-0.4c0.2-0.1,0.3-0.3,0.4-0.5c-0.1,0.1-0.3,0.2-0.4,0.2c0.2-0.2,0.3-0.4,0.4-0.6c0.2,0,0.3-0.1,0.3-0.3l0-0.1
		c0,0,0.1,0,0.1,0c0.1-0.1,0.2-0.2,0.2-0.3l-0.2,0c1-1.4,1.6-2.7,1.9-3.9l-0.5,0.3c-0.8,0.5-1.8,0.6-2.9,0.5
		c-0.4-0.2-0.6-0.4-0.6-0.5c0.1-1,0.7-1.3,1.6-1c1.1,0.1,2-0.1,2.8-0.6c0.6-0.5,1-1.1,1.2-1.9c0.2-0.3,0.5-0.3,0.9-0.2
		s0.6,0.4,0.5,0.7c-0.6,1.4-1.4,2.8-2.5,4.3c-1.1,1.5-2,3.3-2.8,5.4l0.1,0c0.1,0,0.1,0,0.1,0c0,0,0-0.1,0-0.2
		c1.6-1.9,2.6-3.1,3.2-3.5c0.5-0.5,1.3-1.1,2.3-2c0.1,0,0.3,0.1,0.4,0.1c0-0.1,0-0.1,0.1-0.1c0,0-0.1,0-0.1,0c0-0.1,0-0.2,0-0.3
		c0.1-0.1,0.3-0.3,0.7-0.6c0.4-0.4,0.9-0.7,1.4-1.2c0.5-0.4,1.1-1,1.9-1.6c0.1-0.1,0.2-0.2,0.4-0.2c0.2,0,0.3-0.1,0.5-0.1
		c0.3,0,0.5,0.2,0.8,0.6c0.2,0.2,0.3,0.3,0.3,0.6c0,0.1,0,0.2,0,0.3c-0.2,0.3-0.4,0.6-0.6,1c-0.2,0.3-0.4,0.6-0.6,1
		c-0.2,0.4-0.3,0.7-0.4,0.8c0.2,0.3,0.1,0.6-0.3,1c-0.4,0.4-0.7,0.4-0.9,0.2c-0.6-0.4-0.5-0.8,0-1.4c0.3-0.7,0.5-1.1,0.5-1.2
		c-0.2,0-0.3,0-0.3,0c-0.5,0.1-1.2,0.5-2,1.2c-0.8,0.6-1.4,1.1-1.7,1.4c-0.6,0.5-1.4,1.2-2.3,2.1c-0.9,0.9-1.8,1.8-2.7,2.7
		c-0.4,0.5-0.8,0.9-1.2,1.3c-0.4,0.4-0.8,0.8-1.1,1.2c-0.5,0.5-0.9,1-1.3,1.5c-0.4,0.5-0.7,0.9-0.9,1.3
		C361.9,60.3,361.6,60.3,361.3,60.2z M365.8,54.8c0.1,0,0.1,0,0.2,0l0-0.2c0,0-0.1,0-0.1,0C365.8,54.6,365.8,54.7,365.8,54.8z
		 M367.3,50.4c-0.1,0-0.2,0-0.2,0c-0.1,0.1-0.2,0.2-0.2,0.4c0.1,0,0.2,0,0.3,0C367.2,50.7,367.3,50.5,367.3,50.4z M368.1,49l-0.2,0
		c0,0.2,0.1,0.3,0.3,0.3C368.1,49.2,368.1,49.1,368.1,49z M372.1,49.2c0.1,0,0.1,0,0.2,0l0-0.1c-0.1,0-0.2,0-0.4,0
		C371.8,49,371.9,49.1,372.1,49.2z"/>
</g>
<g>
	<path style="fill:#CDD500;" d="M373.4,76.5c-0.1-2.1,1-4.5,3.3-7.2c2.3-2.8,4.6-5.1,6.9-7.1c0,0-0.1,0.2-0.1,0.4c0,0,0.1,0,0.3,0
		c0-0.2,0.1-0.3,0.1-0.3l-0.3,0l0.7-0.5c0.7-1.2,1.5-2.5,2.5-3.8c1-1.4,1.8-3,2.4-4.8c-0.2,0-0.3,0-0.3,0c0,0,0,0.1,0,0.3
		c-0.1,0.1-0.7,0.6-1.7,1.7c-1.1,1-2.2,2.2-3.5,3.4c-1.3,1.2-2.4,2.3-3.6,3.2c-1.1,1-1.8,1.4-2,1.4c0,0-0.3,0.1-0.7,0.2
		s-0.8,0-1.1-0.6c-0.2-0.2-0.2-0.6-0.2-0.9c1.1-1.9,2.6-4.1,4.4-6.6s3.2-4.5,4.1-5.9c0.1-0.2,0-0.3-0.2-0.2c-0.1,0.1-0.1,0-0.1-0.2
		c0.2-0.4,0.4-0.7,0.6-0.9c0.2-0.3,0.4-0.5,0.6-0.8c0.2-0.3,0.4-0.5,0.6-0.8c0.2-0.2,0.7-0.2,1.2,0c0.6,0.2,0.6,0.7,0.1,1.4
		c-0.7,0.9-1.4,2-2.3,3.1c-0.9,1.1-1.7,2.2-2.5,3.2l-0.1,0.4c-0.5,0.7-1.3,1.7-2.3,3c-1,1.4-1.6,2.3-1.7,3c0.6,0,1.4-0.4,2.6-1.3
		c1.2-0.9,2.4-1.9,3.6-3c1.2-1.1,2.4-2.3,3.6-3.4c1.1-1.1,2-2,2.6-2.6c1.3-1.3,2-2.2,2.2-2.6c0.2-0.4,0.6-0.5,1.3-0.3
		c0.6,0.3,0.6,0.9,0.2,1.6c-0.4,0.7-1.1,1.6-2,2.7c-0.9,1-1.9,2.3-3,3.7c-1.1,1.4-2,3-2.7,4.7c0.1-0.1,0.3-0.2,0.5-0.2
		c0.2-0.1,0.3-0.1,0.5-0.2c0.1,0,0.3-0.1,0.6-0.1c0.3-0.1,0.5-0.1,0.7-0.1c0.1,0,0.2,0,0.3-0.1c0.1-0.1,0.2-0.1,0.4-0.1
		c0,0,0.2,0,0.3,0c0.2,0,0.3,0,0.5-0.2c0,0.1-0.1,0.2-0.2,0.2c-0.1,0-0.2,0-0.2,0.1c0,0.1,0,0.1,0.1,0.1c0.4-0.1,0.6-0.2,0.7-0.4
		c0.2,0.2,0.5,0.2,0.8,0c-0.3,0.2-0.6,0.3-0.7,0.1c0,0.2,0,0.3,0.1,0.3c0.1-0.1,0.3-0.1,0.4-0.1c0.1,0,0.2-0.1,0.4-0.2
		C392,58.9,392,59,392,59c0,0,0.1,0,0.1-0.1s0.1-0.1,0.2-0.1l0.1,0c0.2-0.1,0.3-0.2,0.3,0l0.1,0.1l0.3-0.2c0,0.3-0.2,0.4-0.4,0.5
		s-0.4,0.1-0.6,0.2c-0.9,0.2-1.9,0.5-2.9,0.8c-1,0.3-1.9,0.8-2.7,1.4c-0.3,0.5-0.6,0.9-1,1.4c-0.4,0.5-0.5,0.8-0.6,1
		c0,0-0.1,0.1-0.2,0.2c-0.4,0.9-0.8,1.8-1.1,2.7c-0.3,0.9-0.5,1.5-0.4,1.9c-0.1,0-0.2,0-0.3,0c0,0,0-0.1,0-0.1c0,0-0.1,0-0.2,0
		c-0.1,0-0.1,0-0.2,0c0,0.1,0,0.2,0,0.3c0,0.1,0,0.3-0.1,0.4c0,0,0.1,0.1,0.1,0.1c-0.7,0.7-1.4,1.6-2,2.7c-0.6,1.1-1.3,2.1-2.1,3
		c-0.9,1-1.7,1.6-2.4,1.9c-0.4,0.2-1,0.4-1.6,0.5C373.8,77.4,373.5,77.1,373.4,76.5z M374.6,76.5c1.7-0.6,3.7-2.9,6-6.8
		c0,0-0.1-0.1,0-0.1c0-0.1,0.1-0.1,0.1-0.1c0.1-0.2,0.2-0.3,0.2-0.3c0,0,0.1-0.1,0.1,0c0-0.1,0-0.2,0-0.3c0.1-0.1,0.6-0.7,1.3-2
		c0.7-1.2,1.1-1.9,1.1-1.9c-0.2,0-0.5-0.1-0.8-0.2l0-0.1c0,0,0.2,0,0.3,0c0-0.1,0-0.1,0.1-0.1c-0.4-0.1-0.9,0.2-1.4,0.8l0.2,0.2
		c-0.5,0.2-0.7,0.4-0.8,0.6c-0.1,0.2-0.5,0.4-1.1,0.7l0,0.1c0.2,0,0.4,0.1,0.4,0.1c0,0.1,0,0.1,0,0.2c-0.6-0.1-0.9-0.1-0.8,0
		c0.1,0,0.2,0.1,0.3,0.3c-0.4,0.2-0.9,0.7-1.6,1.5c-0.7,0.9-1.4,1.8-2.1,2.8c-0.7,1-1.2,2-1.5,2.9C374.3,75.6,374.3,76.2,374.6,76.5
		z M382.8,58.7c0,0-0.1,0-0.1,0c0,0-0.1,0-0.1,0c0,0.1,0,0.2,0.1,0.2c0.1,0,0.3,0,0.4,0.1c0,0-0.1,0-0.2-0.1
		C382.8,58.8,382.8,58.8,382.8,58.7z M383.3,63.1c0,0,0.1-0.1,0.2-0.1l-0.1-0.1c0,0,0,0.1-0.1,0.1C383.3,63,383.3,63,383.3,63.1z
		 M387,59c0.2,0.1,0.2,0.1,0.2-0.1c0-0.2-0.1-0.2-0.2-0.3c0,0.1,0,0.1,0,0.2C387,59,387,59,387,59z M389.6,52.8c0,0-0.1,0-0.1,0
		c0,0-0.1,0-0.1,0c0,0,0,0.1,0,0.3c0,0,0.1,0,0.2,0C389.6,53,389.6,52.9,389.6,52.8z"/>
</g>
</svg>
