<?xml version="1.0" encoding="iso-8859-1"?>
<!-- Generator: Adobe Illustrator 15.1.0, SVG Export Plug-In . SVG Version: 6.00 Build 0)  -->
<!DOCTYPE svg PUBLIC "-//W3C//DTD SVG 1.1//EN" "http://www.w3.org/Graphics/SVG/1.1/DTD/svg11.dtd">
<svg version="1.1" id="Layer_1" xmlns="http://www.w3.org/2000/svg" xmlns:xlink="http://www.w3.org/1999/xlink" x="0px" y="0px"
     width="321px" height="94px" viewBox="0 0 321 94" style="enable-background:new 0 0 321 94;" xml:space="preserve">
<g>
</g>
<g>
    <defs>
        <rect id="SVGID_1_" x="-139" y="-153.89" width="595.276" height="841.89"/>
    </defs>
    <clipPath id="SVGID_2_">
        <use xlink:href="#SVGID_1_"  style="overflow:visible;"/>
    </clipPath>
    <path style="clip-path:url(#SVGID_2_);fill:#CED600;" d="M303.324,85.167l0.063-0.374c-8.605-2.929-67.969-22.175-148.272-24.162
        c0,0-80.733,2.351-138.78,27.211c0,0-2.035-32.917-11.868-48.027c0,0,43.423-32.324,147.992-33.801
        c0,0,121.354-1.172,167.921,28.336c0,0-12.465,22.663-15.851,50.349"/>
    <path style="clip-path:url(#SVGID_2_);fill:none;stroke:#FFFFFF;stroke-width:1.195;stroke-miterlimit:10;" d="M157.097,53.765
        c-1.454,0.031-83.853,2.019-135.152,26.611l-0.812,0.39l-0.043-0.9c-0.013-0.272-1.405-27.278-9.817-36.496l-0.49-0.537
        l0.622-0.377c0.495-0.3,50.535-29.981,142.039-31.147c1.158,0.015,114.698,1.815,160.296,25.436l0.6,0.311l-0.382,0.558
        c-0.153,0.222-15.239,22.428-15.45,39.203l-0.01,0.749l-0.729-0.176c-1.193-0.288-3.082-0.949-5.696-1.863
        C276.603,70.118,235.508,55.749,157.097,53.765z"/>
    <path style="clip-path:url(#SVGID_2_);fill:#CED600;" d="M303.324-17.833l0.063-0.374c-8.605-2.929-67.969-22.175-148.272-24.162
        c0,0-80.733,2.351-138.78,27.211c0,0-2.035-32.917-11.868-48.027c0,0,43.423-32.324,147.992-33.801
        c0,0,121.354-1.172,167.921,28.336c0,0-12.465,22.663-15.851,50.349"/>
</g>
</svg>
