<?xml version="1.0" encoding="utf-8"?>
<!-- Generator: Adobe Illustrator 15.1.0, SVG Export Plug-In . SVG Version: 6.00 Build 0)  -->
<!DOCTYPE svg PUBLIC "-//W3C//DTD SVG 1.1//EN" "http://www.w3.org/Graphics/SVG/1.1/DTD/svg11.dtd" [
	<!ENTITY st0 "clip-path:url(#SVGID_2_);fill:#FFFFFF;">
]>
<svg version="1.1" id="Layer_1" xmlns="http://www.w3.org/2000/svg" xmlns:xlink="http://www.w3.org/1999/xlink" x="0px" y="0px"
	 width="141.73px" height="85.04px" viewBox="0 0 141.73 85.04" style="enable-background:new 0 0 141.73 85.04;"
	 xml:space="preserve">
<g>
	<defs>
		<rect id="SVGID_1_" width="141.73" height="85.04"/>
	</defs>
	<clipPath id="SVGID_2_">
		<use xlink:href="#SVGID_1_"  style="overflow:visible;"/>
	</clipPath>
	<path style="&st0;" d="M105.76,20.565c0.98,0.003,1.816-0.764,1.867-1.714c0.049-0.952-0.707-1.724-1.686-1.727
		c-0.982-0.003-1.816,0.763-1.867,1.716C104.025,19.79,104.78,20.563,105.76,20.565 M44.457,24.92
		c0.844,0.073,0.908,0.512,0.507,1.679L41.52,36.624c-0.567,1.659-0.159,2.713,1.375,2.717h2.275l0.155-0.428
		c-1.061-0.062-0.934-0.622-0.372-2.276l4.136-12.123h-4.484L44.457,24.92z M16.044,39.597c4.385-0.044,9.115-1.878,12.247-3.866
		c4.434-2.817,6.64-7.029,3.146-10.743c-1.749-1.857-6.161-4.27-7.474-5.686c-1.018-1.1-1.406-2.338-0.607-3.785
		c0.959-1.739,3.472-2.994,6.394-3.153c0.18-0.01,0.353-0.01,0.527-0.01c3.635,0.112,4.764,1.896,4.798,4.119
		c0.015,1.029-0.486,1.868-1.272,2.635l0.343,0.363c1.229-0.778,2.447-1.559,3.002-2.835c0.466-1.056,0.286-1.977-0.168-2.686
		c-0.982-1.538-3.004-2.55-6.143-2.676c-0.196-0.016-0.399-0.026-0.614-0.023c-0.026,0-0.05,0.002-0.074,0.004
		c-0.048,0-0.088-0.005-0.137-0.004l-0.001,0.011c-5.758,0.107-9.229,2.051-10.348,5.509c-0.485,1.504,0.076,3.074,1.138,4.297
		c1.517,1.746,4.699,3.057,6.649,5.111c1.226,1.286,1.616,3.453,1.501,4.79c-0.336,3.912-4.726,6.246-10.491,6.301
		c-6.552,0.068-10.672-2.409-10.725-6.178c-0.044-2.843,2.299-4.81,5.315-6.788l-0.456-0.33c-3.045,1.6-6.802,3.577-8.23,6.85
		C3.61,32.542,3.9,34.034,4.641,35.19C6.372,37.906,10.162,39.657,16.044,39.597 M77.18,26.586L72.813,39.34h3.346l1.516-4.449
		c1.35-3.688,2.656-6.743,5.404-8.759c2.334-1.676,3.375-1.365,2.229,2.006l-3.91,11.202h3.492l0.895-2.653
		c1.543-4.476,3.092-8.427,6.268-10.756c1.955-1.403,3.086-0.985,1.986,2.241l-2.969,8.508c-1.012,2.97-0.34,4.513,2.676,4.513h2.92
		l0.145-0.403c-2.721-0.063-3.34-1.061-2.303-4.1l2.729-7.918c1.865-5.369-2.717-5.325-5.242-3.647
		c-1.061,0.702-2.395,2.071-3.428,3.403c1.664-5.151-2.811-4.945-5.129-3.437c-1.049,0.685-2.369,1.788-3.561,3.356l1.342-3.934
		h-4.434l-0.145,0.391C77.514,24.969,77.582,25.404,77.18,26.586 M52.377,26.586l-4.37,12.754h3.348l1.516-4.449
		c1.35-3.688,2.654-6.743,5.406-8.759c2.333-1.676,3.376-1.365,2.225,2.006L56.594,39.34h3.492l0.896-2.653
		c1.542-4.476,3.089-8.427,6.264-10.756c1.957-1.403,3.088-0.985,1.986,2.241l-2.966,8.508c-1.013,2.97-0.343,4.513,2.672,4.513
		h2.92l0.144-0.403c-2.72-0.063-3.338-1.061-2.301-4.1l2.727-7.918c1.867-5.369-2.715-5.325-5.243-3.647
		c-1.057,0.702-2.39,2.071-3.424,3.403c1.663-5.151-2.811-4.945-5.127-3.437c-1.051,0.685-2.371,1.788-3.561,3.356l1.34-3.934H51.98
		l-0.144,0.391C52.709,24.969,52.781,25.404,52.377,26.586 M99.896,39.34h2.275l0.115-0.392c-1.061-0.062-0.895-0.681-0.33-2.335
		l4.135-12.1h-4.484l-0.146,0.385c0.844,0.074,0.906,0.511,0.506,1.679l-3.445,10.024C97.957,38.261,98.364,39.336,99.896,39.34
		 M109.443,26.596l-4.369,12.745h3.346l0.922-2.679c1.494-4.426,3.297-8.188,6.475-10.519c2.336-1.677,3.646-1.366,2.496,2.008
		l-2.959,8.519c-1.014,2.969-0.33,4.524,2.686,4.524h2.92l0.143-0.403c-2.721-0.063-3.348-1.072-2.311-4.11l2.717-7.93
		c1.863-5.369-2.353-5.219-5.334-3.648c-1.16,0.611-2.682,2.052-4.104,3.554l1.41-4.143h-4.445l-0.146,0.398
		C109.775,24.976,109.848,25.408,109.443,26.596 M41.014,16.444l-6.845,20.177c-0.563,1.659-0.159,2.715,1.377,2.719h2.597
		l0.144-0.408c-1.252,0-1.3-0.483-0.68-2.3l7.529-22.265h-4.441l-0.149,0.4C41.352,14.852,41.404,15.295,41.014,16.444 M51.2,50.947
		h-2.969l0.141-8.841h-1.211l-0.156,9.784h4.181L51.2,50.947z M44.028,49.48c0.184,1.191,0.374,2.121,0.526,2.41h1.227
		c-0.154-0.305-0.345-1.133-0.574-2.467c-0.2-1.278-0.597-1.975-1.38-2.192v-0.029c1.078-0.465,1.718-1.279,1.739-2.527
		c0.011-0.769-0.197-1.421-0.708-1.915c-0.543-0.494-1.326-0.697-2.377-0.697c-0.597,0-1.227,0.059-1.747,0.19l-0.156,9.638h1.21
		l0.07-4.253h0.47C43.365,47.638,43.813,48.132,44.028,49.48 M41.931,43.021c0.157-0.044,0.393-0.059,0.629-0.059
		c1.304,0.015,1.795,0.726,1.778,1.843c-0.019,1.177-0.803,1.96-1.965,1.96H41.87L41.931,43.021z M58.039,46.766
		c0.033-2.047-0.559-3.308-1.366-3.963c-0.574-0.478-1.37-0.74-2.471-0.74c-0.613,0-1.178,0.059-1.637,0.19l-0.154,9.594
		c0.344,0.074,0.864,0.103,1.351,0.103c1.209,0,2.236-0.334,2.939-1.045C57.388,50.222,58.004,49.002,58.039,46.766 M54.09,51.021
		c-0.109,0-0.282,0-0.455-0.029l0.128-7.957c0.158-0.043,0.378-0.057,0.565-0.057c1.698,0,2.494,1.35,2.454,3.817
		C56.729,50.135,55.427,51.021,54.09,51.021 M136.416,24.495l-0.148,0.47c-0.549-0.368-1.678-0.693-2.699-0.712
		c-5.605-0.094-8.234,3.158-9.732,7.286c-1.986,5.492-0.141,7.96,2.18,8.023c2.205,0.061,4.475-1.579,6.183-3.259l0.03,0.014
		c-0.864,2.7-2.236,5.683-4.004,8.813c-6.623,11.724-19.936,21.667-27.666,21.659c-8.078-0.008-9.656-8.872-4.018-19.965H59.859
		v0.938h34.76c-5.035,10.919-2.502,19.697,6.115,19.705c9.617,0.008,23.578-10.234,31.184-22.879
		c1.451-2.417,2.561-4.741,3.346-6.927l0.002,0.001c0.004-0.011,0.008-0.023,0.012-0.034c0.129-0.365,0.252-0.725,0.365-1.082
		c1.523-4.536,4.004-12.051,4.004-12.051H136.416z M133.146,33.727c-1.535,2.209-4.365,4.833-5.619,4.701
		c-1.668-0.175-1.635-2.27-0.16-6.525c1.082-3.142,3.254-6.915,6.041-6.905c1.117,0.005,1.79,0.463,2.367,0.971L133.146,33.727z
		 M21.864,46.824H2.343v0.938h19.521V46.824z M29.698,50.352h-0.047c-0.12-1.364-0.337-2.482-0.555-3.643l-0.916-4.603h-1.022
		l-1.048,4.702c-0.287,1.249-0.54,2.31-0.702,3.543h-0.046c-0.123-1.205-0.262-2.294-0.48-3.527l-0.819-4.718h-1.24l1.869,9.784
		h1.148l1.112-4.719c0.269-1.087,0.474-2.146,0.633-3.252h0.031c0.125,1.074,0.295,2.179,0.499,3.209l0.929,4.762h1.196l2.214-9.784
		H31.26l-0.955,4.659C30.099,47.869,29.894,48.944,29.698,50.352 M39.213,46.925c0.05-3.12-1.006-4.934-2.813-4.934
		c-1.838,0-3.14,1.755-3.191,4.994c-0.053,3.295,1.098,5.024,2.858,5.024h0.015C37.78,52.009,39.154,50.585,39.213,46.925
		 M36.177,51.021h-0.016c-1.367,0-1.741-2.134-1.695-4.036c0.029-1.858,0.457-4.007,1.824-4.007c1.366,0,1.695,2.163,1.665,3.991
		C37.924,48.887,37.528,51.021,36.177,51.021"/>
	<path style="&st0;" d="M25.646,62.601c-13.587,0-15.084-8.595-5.207-20.479H19.53C7.843,56.746,8.807,67.566,23.235,67.566
		c14.427,0,37.687-10.822,56.161-25.445h-0.857C60.747,54.004,39.232,62.601,25.646,62.601"/>
	<path style="&st0;" d="M93.143,0c-11.25,0-27.871,6.593-43.409,16.425c-0.137-0.039-0.269-0.084-0.415-0.106
		c-1.872-0.287-3.685,0.94-4.051,2.742c-0.366,1.796,0.853,3.488,2.723,3.774c1.87,0.285,3.683-0.941,4.053-2.739
		c0.036-0.18,0.046-0.358,0.051-0.534c14.328-9.548,30.152-16.09,40.642-16.09c11.674,0,13.275,8.093,5.369,19.427h0.668
		C108.361,9.583,106.719,0,93.143,0 M49.279,20.135c-0.736-0.002-1.303-0.582-1.265-1.293c0.038-0.714,0.664-1.29,1.402-1.288
		c0.733,0.003,1.3,0.581,1.262,1.295C50.641,19.563,50.013,20.137,49.279,20.135"/>
	<path style="&st0;" d="M1.637,76.752h1.125v0.566H1.637v3.726c0,0.439,0.064,0.695,0.547,0.728c0.192,0,0.385-0.011,0.578-0.032
		v0.579c-0.202,0-0.396,0.021-0.6,0.021c-0.899,0-1.21-0.3-1.199-1.24v-3.78H0v-0.566h0.963v-1.658h0.674V76.752z"/>
	<path style="&st0;" d="M8.68,79.513c0,1.586-0.92,2.923-2.611,2.923c-1.692,0-2.613-1.337-2.613-2.923
		c0-1.584,0.921-2.922,2.613-2.922C7.76,76.591,8.68,77.929,8.68,79.513 M4.131,79.513c0,1.178,0.642,2.354,1.938,2.354
		c1.294,0,1.937-1.177,1.937-2.354s-0.643-2.354-1.937-2.354C4.773,77.159,4.131,78.335,4.131,79.513"/>
	<path style="&st0;" d="M14.16,82.274h-0.621v-0.995h-0.022c-0.353,0.738-1.081,1.156-1.905,1.156c-1.391,0-1.936-0.813-1.936-2.098
		v-3.586h0.673v3.596c0.032,0.996,0.408,1.52,1.478,1.52c1.155,0,1.658-1.091,1.658-2.216v-2.899h0.675V82.274z"/>
	<path style="&st0;" d="M19.329,78.484c-0.183-0.823-0.686-1.325-1.562-1.325c-1.295,0-1.938,1.176-1.938,2.354
		s0.643,2.354,1.938,2.354c0.834,0,1.519-0.653,1.604-1.573h0.675c-0.182,1.328-1.049,2.142-2.279,2.142
		c-1.691,0-2.613-1.337-2.613-2.923c0-1.584,0.922-2.922,2.613-2.922c1.176,0,2.086,0.632,2.236,1.894H19.329z"/>
	<path style="&st0;" d="M20.977,74.632h0.675v3.072h0.02c0.247-0.663,0.986-1.113,1.768-1.113c1.552,0,2.021,0.813,2.021,2.131
		v3.553h-0.674v-3.446c0-0.953-0.309-1.669-1.402-1.669c-1.07,0-1.713,0.813-1.733,1.895v3.221h-0.675V74.632z"/>
	<path style="&st0;" d="M26.745,74.632h0.674v1.081h-0.674V74.632z M26.745,76.752h0.674v5.522h-0.674V76.752z"/>
	<path style="&st0;" d="M28.703,76.752h0.675v0.952h0.021c0.246-0.663,0.986-1.113,1.767-1.113c1.553,0,2.022,0.813,2.022,2.131
		v3.553h-0.674v-3.446c0-0.953-0.311-1.669-1.401-1.669c-1.071,0-1.714,0.813-1.735,1.895v3.221h-0.675V76.752z"/>
	<path style="&st0;" d="M39.129,81.826c-0.011,1.647-0.643,2.654-2.452,2.654c-1.103,0-2.194-0.492-2.289-1.67h0.673
		c0.15,0.813,0.867,1.102,1.616,1.102c1.241,0,1.776-0.738,1.776-2.086v-0.751h-0.021c-0.309,0.674-0.962,1.136-1.755,1.136
		c-1.766,0-2.494-1.263-2.494-2.837c0-1.521,0.899-2.783,2.494-2.783c0.803,0,1.487,0.505,1.755,1.113h0.021v-0.952h0.676V81.826z
		 M38.453,79.449c0-1.082-0.502-2.29-1.776-2.29c-1.286,0-1.819,1.145-1.819,2.29c0,1.113,0.577,2.194,1.819,2.194
		C37.844,81.644,38.453,80.574,38.453,79.449"/>
	<path style="&st0;" d="M43.377,74.632h0.674v3.072h0.021c0.245-0.663,0.985-1.113,1.766-1.113c1.553,0,2.024,0.813,2.024,2.131
		v3.553h-0.675v-3.446c0-0.953-0.31-1.669-1.403-1.669c-1.069,0-1.712,0.813-1.733,1.895v3.221h-0.674V74.632z"/>
	<path style="&st0;" d="M49.53,79.696c0.011,0.983,0.524,2.171,1.82,2.171c0.984,0,1.52-0.577,1.734-1.411h0.674
		c-0.289,1.252-1.016,1.979-2.408,1.979c-1.756,0-2.495-1.349-2.495-2.923c0-1.455,0.739-2.922,2.495-2.922
		c1.777,0,2.483,1.552,2.429,3.105H49.53z M53.105,79.127c-0.032-1.017-0.664-1.968-1.755-1.968c-1.102,0-1.713,0.963-1.82,1.968
		H53.105z"/>
	<path style="&st0;" d="M54.625,78.443c0.065-1.296,0.974-1.853,2.237-1.853c0.974,0,2.035,0.3,2.035,1.776v2.935
		c0,0.256,0.128,0.406,0.395,0.406c0.075,0,0.16-0.021,0.214-0.044v0.569c-0.15,0.03-0.257,0.041-0.439,0.041
		c-0.685,0-0.792-0.385-0.792-0.964h-0.021c-0.471,0.719-0.953,1.125-2.012,1.125c-1.018,0-1.852-0.503-1.852-1.617
		c0-1.552,1.509-1.605,2.965-1.776c0.556-0.064,0.866-0.139,0.866-0.749c0-0.91-0.652-1.134-1.444-1.134
		c-0.835,0-1.456,0.385-1.477,1.284H54.625z M58.221,79.257H58.2c-0.085,0.159-0.385,0.214-0.568,0.245
		c-1.144,0.203-2.568,0.194-2.568,1.274c0,0.675,0.599,1.091,1.232,1.091c1.027,0,1.936-0.652,1.925-1.732V79.257z"/>
	<path style="&st0;" d="M60.243,76.752h0.62v1.294h0.023c0.341-0.887,1.091-1.412,2.086-1.37v0.675
		c-1.22-0.064-2.054,0.836-2.054,1.98v2.943h-0.675V76.752z"/>
	<path style="&st0;" d="M64.686,76.752h1.123v0.566h-1.123v3.726c0,0.439,0.063,0.695,0.545,0.728c0.193,0,0.386-0.011,0.578-0.032
		v0.579c-0.204,0-0.395,0.021-0.6,0.021c-0.898,0-1.21-0.3-1.198-1.24v-3.78h-0.963v-0.566h0.963v-1.658h0.675V76.752z"/>
	<path style="&st0;" d="M70.09,78.367c-0.031-0.834-0.674-1.208-1.445-1.208c-0.599,0-1.305,0.235-1.305,0.951
		c0,0.601,0.685,0.813,1.144,0.932l0.9,0.203c0.771,0.117,1.575,0.568,1.575,1.531c0,1.199-1.188,1.659-2.217,1.659
		c-1.285,0-2.162-0.6-2.271-1.949h0.676c0.054,0.91,0.728,1.381,1.626,1.381c0.632,0,1.51-0.276,1.51-1.048
		c0-0.643-0.598-0.856-1.209-1.006l-0.867-0.194c-0.878-0.234-1.541-0.533-1.541-1.477c0-1.124,1.101-1.552,2.076-1.552
		c1.102,0,1.98,0.578,2.024,1.776H70.09z"/>
	<path style="&st0;" d="M73.225,81.14v1.146c-0.01,0.621-0.299,1.273-0.941,1.457v-0.461c0.354-0.129,0.514-0.653,0.492-1.007
		h-0.447V81.14H73.225z"/>
	<path style="&st0;" d="M81.777,78.484c-0.182-0.823-0.684-1.325-1.563-1.325c-1.295,0-1.938,1.176-1.938,2.354
		s0.643,2.354,1.938,2.354c0.836,0,1.521-0.653,1.605-1.573h0.674c-0.182,1.328-1.049,2.142-2.279,2.142
		c-1.691,0-2.611-1.337-2.611-2.923c0-1.584,0.92-2.922,2.611-2.922c1.178,0,2.088,0.632,2.236,1.894H81.777z"/>
	<path style="&st0;" d="M83.426,74.632H84.1v3.072h0.021c0.246-0.663,0.984-1.113,1.766-1.113c1.553,0,2.023,0.813,2.023,2.131
		v3.553h-0.674v-3.446c0-0.953-0.311-1.669-1.402-1.669c-1.07,0-1.713,0.813-1.734,1.895v3.221h-0.674V74.632z"/>
	<path style="&st0;" d="M89.119,78.443c0.064-1.296,0.975-1.853,2.238-1.853c0.973,0,2.031,0.3,2.031,1.776v2.935
		c0,0.256,0.129,0.406,0.396,0.406c0.076,0,0.162-0.021,0.215-0.044v0.569c-0.148,0.03-0.256,0.041-0.438,0.041
		c-0.686,0-0.793-0.385-0.793-0.964h-0.021c-0.471,0.719-0.953,1.125-2.014,1.125c-1.016,0-1.852-0.503-1.852-1.617
		c0-1.552,1.51-1.605,2.967-1.776c0.556-0.064,0.867-0.139,0.867-0.749c0-0.91-0.654-1.134-1.445-1.134
		c-0.836,0-1.457,0.385-1.479,1.284H89.119z M92.717,79.257h-0.023c-0.084,0.159-0.385,0.214-0.566,0.245
		c-1.145,0.203-2.568,0.194-2.568,1.274c0,0.675,0.598,1.091,1.23,1.091c1.027,0,1.938-0.652,1.928-1.732V79.257z"/>
	<path style="&st0;" d="M94.729,76.752H95.4v0.952h0.021c0.246-0.663,0.984-1.113,1.768-1.113c1.551,0,2.023,0.813,2.023,2.131
		v3.553h-0.676v-3.446c0-0.953-0.309-1.669-1.402-1.669c-1.07,0-1.713,0.813-1.734,1.895v3.221h-0.672V76.752z"/>
	<path style="&st0;" d="M105.152,81.826c-0.012,1.647-0.643,2.654-2.453,2.654c-1.102,0-2.193-0.492-2.291-1.67h0.676
		c0.15,0.813,0.867,1.102,1.615,1.102c1.242,0,1.777-0.738,1.777-2.086v-0.751h-0.021c-0.31,0.674-0.964,1.136-1.757,1.136
		c-1.766,0-2.493-1.263-2.493-2.837c0-1.521,0.899-2.783,2.493-2.783c0.805,0,1.488,0.505,1.757,1.113h0.021v-0.952h0.676V81.826z
		 M104.477,79.449c0-1.082-0.502-2.29-1.777-2.29c-1.283,0-1.818,1.145-1.818,2.29c0,1.113,0.578,2.194,1.818,2.194
		C103.867,81.644,104.477,80.574,104.477,79.449"/>
	<path style="&st0;" d="M106.445,74.632h0.676v1.081h-0.676V74.632z M106.445,76.752h0.676v5.522h-0.676V76.752z"/>
	<path style="&st0;" d="M108.406,76.752h0.672v0.952h0.021c0.246-0.663,0.984-1.113,1.768-1.113c1.551,0,2.023,0.813,2.023,2.131
		v3.553h-0.676v-3.446c0-0.953-0.309-1.669-1.402-1.669c-1.07,0-1.713,0.813-1.734,1.895v3.221h-0.672V76.752z"/>
	<path style="&st0;" d="M118.828,81.826c-0.012,1.647-0.643,2.654-2.451,2.654c-1.102,0-2.195-0.492-2.291-1.67h0.676
		c0.15,0.813,0.867,1.102,1.615,1.102c1.242,0,1.777-0.738,1.777-2.086v-0.751h-0.021c-0.311,0.674-0.963,1.136-1.756,1.136
		c-1.766,0-2.494-1.263-2.494-2.837c0-1.521,0.9-2.783,2.494-2.783c0.805,0,1.488,0.505,1.756,1.113h0.021v-0.952h0.674V81.826z
		 M118.154,79.449c0-1.082-0.502-2.29-1.777-2.29c-1.283,0-1.818,1.145-1.818,2.29c0,1.113,0.578,2.194,1.818,2.194
		C117.545,81.644,118.154,80.574,118.154,79.449"/>
	<rect x="123.1" y="74.632" style="&st0;" width="0.675" height="7.644"/>
	<path style="&st0;" d="M125.078,74.632h0.674v1.081h-0.674V74.632z M125.078,76.752h0.674v5.522h-0.674V76.752z"/>
	<polygon style="&st0;" points="126.428,76.752 127.176,76.752 128.91,81.602 128.932,81.602 130.645,76.752 131.34,76.752 
		129.273,82.274 128.557,82.274 	"/>
	<path style="&st0;" d="M132.398,79.696c0.012,0.983,0.525,2.171,1.82,2.171c0.984,0,1.52-0.577,1.734-1.411h0.674
		c-0.289,1.252-1.018,1.979-2.408,1.979c-1.756,0-2.494-1.349-2.494-2.923c0-1.455,0.738-2.922,2.494-2.922
		c1.775,0,2.484,1.552,2.43,3.105H132.398z M135.975,79.127c-0.033-1.017-0.664-1.968-1.756-1.968c-1.104,0-1.713,0.963-1.82,1.968
		H135.975z"/>
	<path style="&st0;" d="M140.865,78.367c-0.033-0.834-0.676-1.208-1.445-1.208c-0.6,0-1.307,0.235-1.307,0.951
		c0,0.601,0.686,0.813,1.146,0.932l0.898,0.203c0.771,0.117,1.574,0.568,1.574,1.531c0,1.199-1.189,1.659-2.217,1.659
		c-1.283,0-2.162-0.6-2.27-1.949h0.676c0.053,0.91,0.727,1.381,1.627,1.381c0.631,0,1.51-0.276,1.51-1.048
		c0-0.643-0.6-0.856-1.211-1.006l-0.867-0.194c-0.877-0.234-1.541-0.533-1.541-1.477c0-1.124,1.102-1.552,2.076-1.552
		c1.104,0,1.98,0.578,2.023,1.776H140.865z"/>
</g>
</svg>
