<?xml version="1.0" encoding="utf-8"?>
<!-- Generator: Adobe Illustrator 15.1.0, SVG Export Plug-In . SVG Version: 6.00 Build 0)  -->
<!DOCTYPE svg PUBLIC "-//W3C//DTD SVG 1.1//EN" "http://www.w3.org/Graphics/SVG/1.1/DTD/svg11.dtd">
<svg version="1.1" id="Layer_1" xmlns="http://www.w3.org/2000/svg" xmlns:xlink="http://www.w3.org/1999/xlink" x="0px" y="0px"
	 width="315.914px" height="81.834px" viewBox="0 0 315.914 81.834" enable-background="new 0 0 315.914 81.834"
	 xml:space="preserve">
<g display="none">
	<g display="inline">
		<g>
			<g>
				<defs>
					<rect id="SVGID_1_" x="-15.333" y="70.667" width="846" height="432.889"/>
				</defs>
				<clipPath id="SVGID_2_">
					<use xlink:href="#SVGID_1_"  overflow="visible"/>
				</clipPath>
				<path clip-path="url(#SVGID_2_)" fill="#CED600" d="M732.529,421.255c3.387-27.686,15.852-50.348,15.852-50.348
					c-46.568-29.508-167.922-28.336-167.922-28.336c-104.568,1.477-147.992,33.801-147.992,33.801
					c9.834,15.109,11.869,48.027,11.869,48.027c58.047-24.861,138.779-27.218,138.779-27.218
					c80.303,1.988,139.666,21.234,148.271,24.162l-0.063,0.375L732.529,421.255z"/>
			</g>
		</g>
	</g>
</g>
<text transform="matrix(0.9961 -0.0882 0.0882 0.9961 148.3877 166.7822)" display="none" fill="#CED600" enable-background="new    " font-family="'HarabaraHand'" font-size="32.915"> </text>
<path fill="#FFFFFF" d="M300.062,78.69c3.389-27.686,15.852-50.348,15.852-50.348C269.347-1.166,147.993,0.006,147.993,0.006
	C43.424,1.483,0,33.807,0,33.807c9.833,15.11,11.868,48.028,11.868,48.028c58.047-24.861,138.781-27.211,138.781-27.211
	c80.303,1.986,139.667,21.232,148.27,24.162l-0.063,0.373L300.062,78.69z"/>
<path fill="none" stroke="#E40031" stroke-width="0.2" stroke-miterlimit="10" d="M300.062,79.923
	c3.389-27.687,15.852-50.349,15.852-50.349C269.347,0.066,147.993,1.238,147.993,1.238C43.424,2.715,0,35.039,0,35.039
	c9.833,15.109,11.868,48.027,11.868,48.027c58.047-24.86,138.781-27.211,138.781-27.211c80.303,1.986,139.667,21.232,148.27,24.162
	l-0.063,0.373L300.062,79.923z"/>
<path fill="none" stroke="#E40031" stroke-miterlimit="10" d="M152.629,48.989c-1.453,0.03-83.853,2.019-135.151,26.61l-0.813,0.391
	l-0.043-0.899c-0.013-0.272-1.404-27.278-9.816-36.497l-0.49-0.537l0.622-0.377c0.495-0.3,50.535-29.98,142.039-31.146
	c1.158,0.015,114.697,1.814,160.296,25.436l0.6,0.311l-0.381,0.559c-0.154,0.223-15.24,22.428-15.451,39.203l-0.01,0.749
	l-0.729-0.176c-1.193-0.288-3.082-0.949-5.695-1.863C272.136,65.342,231.041,50.973,152.629,48.989z"/>
</svg>
